<svg class="animated" id="freepik_stories-demo" xmlns="http://www.w3.org/2000/svg" viewBox="0 0 750 500" version="1.1" xmlns:xlink="http://www.w3.org/1999/xlink" xmlns:svgjs="http://svgjs.com/svgjs"><style>svg#freepik_stories-demo:not(.animated) .animable {opacity: 0;}svg#freepik_stories-demo.animated #freepik--Device--inject-296 {animation: 1.5s Infinite  linear floating;animation-delay: 0s;}svg#freepik_stories-demo.animated #freepik--speech-bubble-2--inject-296 {animation: 1.5s Infinite  linear heartbeat;animation-delay: 0s;}svg#freepik_stories-demo.animated #freepik--speech-bubble-1--inject-296 {animation: 1.5s Infinite  linear heartbeat;animation-delay: 0s;}            @keyframes floating {                0% {                    opacity: 1;                    transform: translateY(0px);                }                50% {                    transform: translateY(-10px);                }                100% {                    opacity: 1;                    transform: translateY(0px);                }            }                    @keyframes heartbeat {                0% {                    transform: scale(1);                }                10% {                    transform: scale(1.1);                }                30% {                    transform: scale(1);                }                40% {                    transform: scale(1);                }                50% {                    transform: scale(1.1);                }                60% {                    transform: scale(1);                }                100% {                    transform: scale(1);                }            }        </style><g id="freepik--background-complete--inject-296" class="animable" style="transform-origin: 372.795px 235.052px;"><circle cx="530.31" cy="186.3" r="34.35" style="fill: rgb(224, 224, 224); transform-origin: 530.31px 186.3px;" id="elfhxmqjmnw8p" class="animable"></circle><path d="M520.56,186.77V173.59A3,3,0,0,1,525,171l11.42,6.59,11.41,6.59a3,3,0,0,1,0,5.18L536.46,196,525,202.54a3,3,0,0,1-4.48-2.59Z" style="fill: rgb(255, 255, 255); transform-origin: 534.918px 186.781px;" id="eljksc6py0e6j" class="animable"></path><g id="elxvf6hajo37s"><circle cx="461.82" cy="47.42" r="26.85" style="fill: rgb(245, 245, 245); transform-origin: 461.82px 47.42px; transform: rotate(-74.9951deg);" class="animable"></circle></g><path d="M454.19,47.19,455,36.91a2.33,2.33,0,0,1,3.65-1.74L467.14,41l8.5,5.84a2.34,2.34,0,0,1-.32,4L466,55.32l-9.31,4.43a2.33,2.33,0,0,1-3.33-2.29Z" style="fill: rgb(255, 255, 255); transform-origin: 464.986px 47.3673px;" id="eljc4jxqoa0d" class="animable"></path><path d="M51.49,447.92c-1.25-1.07-4-4.46-1.89-8.41.79-1.45,2.46-2.17,4-2.81a16.25,16.25,0,0,0,4.36-2.25c2.36-2,3-5.36,4.58-8,1.81-3.08,5.17-5.39,8.72-5.23,4.07.19,7.46,3.51,9,7.3s1.59,8,1.63,12.09c0,2.26-.09,4.81-1.75,6.34s-3.84,1.42-5.91,1.36L52,447.59" style="fill: rgb(245, 245, 245); transform-origin: 65.359px 434.775px;" id="elbmv1wbaq8ma" class="animable"></path><path d="M94,386.78H35.54l10.53,62.81a7,7,0,0,0,5,5.59l.2.06c.17,0,.34.1.52.13a7.74,7.74,0,0,0,1.19.14v.06l.28-.05H79.34a7.46,7.46,0,0,0,1.43-.14,7,7,0,0,0,5.91-6.14L91.76,406l.23-1.72h0l2-17.14ZM83,426.84H77l.61-18.22h7Zm2.14-18.22h5.75l-2.14,18.22H83.56ZM68,447.05l-.37-15.83h8.65l-.53,15.83Zm-9.34-15.83H67l.37,15.83H59.87Zm.65,15.83h-7c-.67-4.27-1.54-9.83-2.49-15.83h8.29Zm-1-20.21-1.42-18.22h9.63l.42,18.22Zm9.21,0-.42-18.22H77l-.61,18.22ZM67,404.25l-.39-16.89H77.71l-.56,16.89Zm-.58,0H56.54l-1.31-16.89H66Zm-10.45,0H45.51c-.37-2.34-.72-4.54-1-6.53-1.09-6.82-1.5-9.39-1.73-10.36h11.9Zm.34,4.37,1.42,18.22H49.08c-.29-1.85-.59-3.72-.88-5.59-.68-4.3-1.36-8.6-2-12.63Zm-7.81,18.22H42.85l-3.06-18.22h5.83C46.51,414.25,47.5,420.52,48.49,426.84Zm.69,4.38c.86,5.48,1.7,10.88,2.48,15.83H46.24l-2.66-15.83Zm27.13,15.83.53-15.83h5.77l-1.35,15.83Zm1.42-42.8.56-16.89h8.07l-1.45,16.89ZM42.2,387.36c.23,1.22,1.3,7.87,2.73,16.89H39.06l-2.83-16.89Zm44.16,59.69H81.84l1.35-15.83h5Zm5-42.8H85.5l1.44-16.89h6.42Z" style="fill: rgb(224, 224, 224); transform-origin: 64.77px 421.175px;" id="ell0mw99pgdyi" class="animable"></path><rect x="58.11" y="47.82" width="117.99" height="105.56" style="fill: rgb(250, 250, 250); transform-origin: 117.105px 100.6px;" id="el7950wm965pp" class="animable"></rect><path d="M176.1,153.38s0-.68,0-2,0-3.19,0-5.66c0-5,0-12.2-.07-21.43,0-18.44-.08-44.79-.14-76.51l.27.27-118,0h0l.32-.31c0,38.4,0,74.54,0,105.56l-.28-.28,85.34.14,24.07.07,6.37,0,1.65,0,.56,0h-.53l-1.62,0-6.31,0-24,.07-85.52.14h-.27v-.27c0-31,0-67.16,0-105.56V47.5h.33l118,0h.27v.27c-.06,31.79-.11,58.2-.14,76.68,0,9.2,0,16.43-.07,21.37,0,2.44,0,4.32,0,5.6S176.1,153.38,176.1,153.38Z" style="fill: rgb(224, 224, 224); transform-origin: 117.24px 100.47px;" id="elvme69zeoxdg" class="animable"></path><path d="M103.35,66.57c0,.18-6.21.32-13.86.32s-13.87-.14-13.87-.32,6.2-.31,13.87-.31S103.35,66.4,103.35,66.57Z" style="fill: rgb(224, 224, 224); transform-origin: 89.485px 66.575px;" id="elcnz8mhgfq9" class="animable"></path><path d="M153.35,74.5c0,.17-17.06.31-38.1.31s-38.11-.14-38.11-.31,17.06-.32,38.11-.32S153.35,74.33,153.35,74.5Z" style="fill: rgb(224, 224, 224); transform-origin: 115.245px 74.495px;" id="eluu8y5oty2v9" class="animable"></path><rect x="75.82" y="87.92" width="4.97" height="4.97" style="fill: rgb(224, 224, 224); transform-origin: 78.305px 90.405px;" id="eltqbj6jprz3a" class="animable"></rect><rect x="88.05" y="87.92" width="4.97" height="4.97" style="fill: rgb(224, 224, 224); transform-origin: 90.535px 90.405px;" id="el9v1nfwa4ivf" class="animable"></rect><rect x="100.52" y="87.7" width="4.97" height="4.97" style="fill: rgb(224, 224, 224); transform-origin: 103.005px 90.185px;" id="el3i9pa6252nl" class="animable"></rect><rect x="112.53" y="87.92" width="4.97" height="4.97" style="fill: rgb(224, 224, 224); transform-origin: 115.015px 90.405px;" id="elce02jel0a5p" class="animable"></rect><rect x="124.76" y="87.92" width="4.97" height="4.97" style="fill: rgb(224, 224, 224); transform-origin: 127.245px 90.405px;" id="elz2unovmhp7d" class="animable"></rect><rect x="137" y="87.92" width="4.97" height="4.97" style="fill: rgb(224, 224, 224); transform-origin: 139.485px 90.405px;" id="elju6nkufaekm" class="animable"></rect><rect x="149.23" y="87.92" width="4.97" height="4.97" style="fill: rgb(235, 235, 235); transform-origin: 151.715px 90.405px;" id="elh6gpmypcr7" class="animable"></rect><rect x="75.82" y="98.49" width="4.97" height="4.97" style="fill: rgb(235, 235, 235); transform-origin: 78.305px 100.975px;" id="eli66d4csfhn" class="animable"></rect><rect x="88.05" y="98.49" width="4.97" height="4.97" style="fill: rgb(224, 224, 224); transform-origin: 90.535px 100.975px;" id="elvjh2z5tfi3h" class="animable"></rect><rect x="100.29" y="98.49" width="4.97" height="4.97" style="fill: rgb(235, 235, 235); transform-origin: 102.775px 100.975px;" id="el37mwx7r6ipn" class="animable"></rect><rect x="112.53" y="98.49" width="4.97" height="4.97" style="fill: rgb(224, 224, 224); transform-origin: 115.015px 100.975px;" id="elf908mb2l9qg" class="animable"></rect><rect x="124.76" y="98.49" width="4.97" height="4.97" style="fill: rgb(224, 224, 224); transform-origin: 127.245px 100.975px;" id="eljw5y166jzph" class="animable"></rect><rect x="137.22" y="98.27" width="4.97" height="4.97" style="fill: rgb(224, 224, 224); transform-origin: 139.705px 100.755px;" id="el4vx6avx9ywo" class="animable"></rect><rect x="149.23" y="98.49" width="4.97" height="4.97" style="fill: rgb(224, 224, 224); transform-origin: 151.715px 100.975px;" id="el28midl3fl87" class="animable"></rect><rect x="75.82" y="109.06" width="4.97" height="4.97" style="fill: rgb(224, 224, 224); transform-origin: 78.305px 111.545px;" id="elw9gz41mrx9" class="animable"></rect><rect x="88.28" y="108.83" width="4.97" height="4.97" style="fill: rgb(224, 224, 224); transform-origin: 90.765px 111.315px;" id="elbpy448y3cz4" class="animable"></rect><rect x="100.29" y="109.06" width="4.97" height="4.97" style="fill: rgb(224, 224, 224); transform-origin: 102.775px 111.545px;" id="eldic2no656eu" class="animable"></rect><rect x="112.53" y="109.06" width="4.97" height="4.97" style="fill: rgb(235, 235, 235); transform-origin: 115.015px 111.545px;" id="elyfqrxacxfw" class="animable"></rect><rect x="124.76" y="109.06" width="4.97" height="4.97" style="fill: rgb(224, 224, 224); transform-origin: 127.245px 111.545px;" id="elu285rt1k0x" class="animable"></rect><rect x="137" y="109.06" width="4.97" height="4.97" style="fill: rgb(224, 224, 224); transform-origin: 139.485px 111.545px;" id="elhm64nna2er" class="animable"></rect><rect x="149.23" y="109.06" width="4.97" height="4.97" style="fill: rgb(224, 224, 224); transform-origin: 151.715px 111.545px;" id="el9mwagbrdbt6" class="animable"></rect><rect x="75.82" y="119.63" width="4.97" height="4.97" style="fill: rgb(224, 224, 224); transform-origin: 78.305px 122.115px;" id="el2dxbfjs2g3x" class="animable"></rect><rect x="88.05" y="119.63" width="4.97" height="4.97" style="fill: rgb(224, 224, 224); transform-origin: 90.535px 122.115px;" id="elkbzr4n7r3zg" class="animable"></rect><rect x="100.29" y="119.63" width="4.97" height="4.97" style="fill: rgb(224, 224, 224); transform-origin: 102.775px 122.115px;" id="el6w3wt0nt1to" class="animable"></rect><rect x="112.75" y="119.4" width="4.97" height="4.97" style="fill: rgb(224, 224, 224); transform-origin: 115.235px 121.885px;" id="el2wdtisy632i" class="animable"></rect><rect x="124.76" y="119.63" width="4.97" height="4.97" style="fill: rgb(224, 224, 224); transform-origin: 127.245px 122.115px;" id="elcrt20gacb64" class="animable"></rect><rect x="137" y="119.63" width="4.97" height="4.97" style="fill: rgb(235, 235, 235); transform-origin: 139.485px 122.115px;" id="ellv0kyxqnwkj" class="animable"></rect><rect x="149.23" y="119.63" width="4.97" height="4.97" style="fill: rgb(224, 224, 224); transform-origin: 151.715px 122.115px;" id="elq3afoi12dx" class="animable"></rect><rect x="75.82" y="130.19" width="4.97" height="4.97" style="fill: rgb(224, 224, 224); transform-origin: 78.305px 132.675px;" id="elxcj3t8myzrc" class="animable"></rect><rect x="88.05" y="130.19" width="4.97" height="4.97" style="fill: rgb(235, 235, 235); transform-origin: 90.535px 132.675px;" id="elw21pg3geop" class="animable"></rect><rect x="100.29" y="130.19" width="4.97" height="4.97" style="fill: rgb(224, 224, 224); transform-origin: 102.775px 132.675px;" id="el2nnin2x578l" class="animable"></rect><rect x="112.53" y="130.19" width="4.97" height="4.97" style="fill: rgb(224, 224, 224); transform-origin: 115.015px 132.675px;" id="elhkuwz6an58n" class="animable"></rect><rect x="124.76" y="130.19" width="4.97" height="4.97" style="fill: rgb(224, 224, 224); transform-origin: 127.245px 132.675px;" id="eld733opbrxg" class="animable"></rect><rect x="137.22" y="129.97" width="4.97" height="4.97" style="fill: rgb(224, 224, 224); transform-origin: 139.705px 132.455px;" id="elkdjez0ylh8q" class="animable"></rect><rect x="149.23" y="130.19" width="4.97" height="4.97" style="fill: rgb(224, 224, 224); transform-origin: 151.715px 132.675px;" id="el3t60guubm9h" class="animable"></rect><rect x="619.69" y="40.4" width="90.36" height="130.97" style="fill: rgb(224, 224, 224); transform-origin: 664.87px 105.885px;" id="elb9dgbg83166" class="animable"></rect><rect x="615.17" y="40.4" width="90.36" height="130.97" style="fill: rgb(245, 245, 245); transform-origin: 660.35px 105.885px;" id="elr2cyyj02cks" class="animable"></rect><rect x="626.39" y="54.59" width="67.91" height="102.6" style="fill: rgb(255, 255, 255); transform-origin: 660.345px 105.89px;" id="el11t0kvuo3kil" class="animable"></rect><path d="M694.3,157.19s0-.18,0-.5,0-.83,0-1.46c0-1.29,0-3.17,0-5.63,0-4.91,0-12.08-.07-21.13,0-18.09-.06-43.71-.11-73.88l.23.22-67.9,0h0l.25-.24c0,38.7,0,74.39,0,102.6l-.2-.2,49.43.11,13.66.05,3.58,0c.81,0,1.24,0,1.24,0l-1.2,0-3.55,0-13.61.05-49.55.1h-.19v-.19c0-28.21,0-63.9-.05-102.6v-.25h.25l67.9,0h.23v.23c0,30.23-.08,55.9-.11,74,0,9,0,16.18-.06,21.08,0,2.43,0,4.3,0,5.58,0,.63,0,1.1,0,1.43S694.3,157.19,694.3,157.19Z" style="fill: rgb(224, 224, 224); transform-origin: 660.45px 105.76px;" id="elxhmjj33fu8" class="animable"></path><path d="M705.78,40.4a15.7,15.7,0,0,1-1.61,2.34c-1,1.4-2.54,3.31-4.24,5.38s-3.29,3.89-4.47,5.19a14.69,14.69,0,0,1-2,2,17.09,17.09,0,0,1,1.73-2.26l4.35-5.27,4.35-5.28A16.06,16.06,0,0,1,705.78,40.4Z" style="fill: rgb(224, 224, 224); transform-origin: 699.62px 47.855px;" id="el6sc1iq9p83v" class="animable"></path><path d="M694.65,156.86a84,84,0,0,0,11.84,14.81" style="fill: rgb(255, 255, 255); transform-origin: 700.57px 164.265px;" id="el6ujt6caeidh" class="animable"></path><path d="M706.49,171.67a12.77,12.77,0,0,1-2.07-1.88,67.79,67.79,0,0,1-8.4-10.5,13.48,13.48,0,0,1-1.37-2.43,19.15,19.15,0,0,1,1.66,2.23c1,1.4,2.4,3.31,4,5.36s3.19,3.83,4.34,5.1A19.24,19.24,0,0,1,706.49,171.67Z" style="fill: rgb(224, 224, 224); transform-origin: 700.57px 164.265px;" id="eln5p3rmoqhup" class="animable"></path><path d="M615.15,171.27q5.93-7.31,11.84-14.6" style="fill: rgb(255, 255, 255); transform-origin: 621.07px 163.97px;" id="elk5z1zxbnm0i" class="animable"></path><path d="M627,156.67a92.81,92.81,0,0,1-5.73,7.45,87.09,87.09,0,0,1-6.11,7.15,91.83,91.83,0,0,1,5.73-7.46A87.89,87.89,0,0,1,627,156.67Z" style="fill: rgb(224, 224, 224); transform-origin: 621.08px 163.97px;" id="el5e8fq84ktkh" class="animable"></path><path d="M615.17,40.4a85.24,85.24,0,0,1,5.74,6.87,81.49,81.49,0,0,1,5.36,7.17,78.7,78.7,0,0,1-5.74-6.87A78.16,78.16,0,0,1,615.17,40.4Z" style="fill: rgb(224, 224, 224); transform-origin: 620.72px 47.42px;" id="elioiuhdepako" class="animable"></path><rect x="650.4" y="75.42" width="22.74" height="64.56" style="fill: rgb(224, 224, 224); transform-origin: 661.77px 107.7px;" id="elwt02yp3468b" class="animable"></rect><path d="M192.46,357.13A34.94,34.94,0,0,0,177.52,352c-2.44-.25-5.1-.18-7.06,1.3a1.45,1.45,0,0,0-.73,1.29,1.61,1.61,0,0,0,.69.88c6.08,4.64,15.27,5.22,22,1.67" style="fill: rgb(224, 224, 224); transform-origin: 181.095px 355.662px;" id="elzww8z6mflzi" class="animable"></path><path d="M192.08,356.71a73.58,73.58,0,0,1-9.65-8.49A24.45,24.45,0,0,1,176.38,337a4.5,4.5,0,0,1,.48-3.74c7.69,6,13.73,13.77,15.22,23.42" style="fill: rgb(224, 224, 224); transform-origin: 184.126px 344.985px;" id="elgrprjlnl9ia" class="animable"></path><path d="M192.38,357.07a34.75,34.75,0,0,1,.18-12.66A17.16,17.16,0,0,1,199.31,334c1.33,3.11.76,6.69-.18,9.93A48.41,48.41,0,0,1,192.44,358" style="fill: rgb(224, 224, 224); transform-origin: 195.989px 346px;" id="elkpc2hyk4ylh" class="animable"></path><path d="M199.92,370.58c-4.58.56-8.56,3-12,6.06a22.7,22.7,0,0,0-6.85,11.77c4.49-.28,8.3-3.45,11.06-7s4.67-7.45,7.71-10.77" style="fill: rgb(224, 224, 224); transform-origin: 190.495px 379.495px;" id="elp4wh7uh4ccr" class="animable"></path><path d="M201.56,372.74A29.55,29.55,0,0,1,205,344.79c2.61,9.28,1.65,19.75-3.41,27.95" style="fill: rgb(224, 224, 224); transform-origin: 202.961px 358.765px;" id="elsu0a8cxihkk" class="animable"></path><path d="M211.52,384.6a21.39,21.39,0,0,0-20.43,11.76c-.25.51-.48,1.15-.14,1.6a1.5,1.5,0,0,0,1.36.4c4-.26,7.59-2.68,10.54-5.44s5.51-5.94,8.76-8.33" style="fill: rgb(224, 224, 224); transform-origin: 201.194px 391.476px;" id="el2g23ej85308" class="animable"></path><path d="M211.2,384a38.15,38.15,0,0,1-.38-21.26c.75-2.73,2-5.61,4.54-6.89a.91.91,0,0,1,.69-.13.89.89,0,0,1,.44.51,12.85,12.85,0,0,1,1.07,6.1,37,37,0,0,1-1,6.17c-.79,3.77-1.22,7.83-3.29,11.08A22,22,0,0,0,212,382c-.39.82-.4,1.11-.75,1.77" style="fill: rgb(224, 224, 224); transform-origin: 213.542px 369.85px;" id="el2ef4olugbmj" class="animable"></path><path d="M237.57,387.89c-1.95-7.43.12-16.44,4.8-22.54.35-.44.8-.92,1.37-.87.86.08,1.08,1.23,1,2.09a40.77,40.77,0,0,1-7.22,21.32" style="fill: rgb(224, 224, 224); transform-origin: 240.797px 376.183px;" id="elkkafm7kqg7" class="animable"></path><path d="M240,389.51c9,2.35,19.38.07,26.89-5.47a21.82,21.82,0,0,0-14.56-1.79c-4.86,1.12-9.3,3.3-12.33,7.26" style="fill: rgb(224, 224, 224); transform-origin: 253.445px 386.075px;" id="elk4kwjs7ecy" class="animable"></path><path d="M242,384.56c5.06-8.24,14.75-13.62,24.41-14.11-1.11,3.93-4.34,7-8,8.83s-7.71,2.64-11.72,3.42c-1.56.31-3.7.64-4.71,1.86" style="fill: rgb(224, 224, 224); transform-origin: 254.195px 377.505px;" id="eldab1eniqtxw" class="animable"></path><path d="M238.07,360.55a70.42,70.42,0,0,0,3.12-14.29c.38-4.87-.31-10-2.84-14.14-4.73,9.14-5.2,19.82-.42,28.92" style="fill: rgb(224, 224, 224); transform-origin: 237.927px 346.58px;" id="el4u2pua2ud1m" class="animable"></path><path d="M254,352.52c5.53-10,16.8-18.06,28.2-19.18-4.4,11-16.4,19.41-28.2,19.18" style="fill: rgb(224, 224, 224); transform-origin: 268.1px 342.932px;" id="el7z50681qmfx" class="animable"></path><path d="M250.5,354.48c8.24,1.26,15.26,6.52,22.95,9.71a10.24,10.24,0,0,0,5.19,1,4.06,4.06,0,0,0,2.55-7.18,11.2,11.2,0,0,0-3.77-2.29c-8.39-3.49-17.38-3.58-26.21-1.46" style="fill: rgb(224, 224, 224); transform-origin: 266.576px 359.031px;" id="elshzcgwnrmu" class="animable"></path><path d="M245.73,360.26c1.87.54,2.5,1.5,4,2.76A42.92,42.92,0,0,0,267.12,372c.66.17,1.53.23,1.86-.37s-.07-1.16-.45-1.63A23.84,23.84,0,0,0,258,362.83c-4-1.5-7.49-3.3-12.29-2.91" style="fill: rgb(224, 224, 224); transform-origin: 257.406px 365.991px;" id="eld0zfgp9fjd9" class="animable"></path><path d="M240.35,325.37A33,33,0,0,0,265.61,334a1.78,1.78,0,0,0,1.15-.41c.63-.69-.13-1.76-.87-2.34-7.42-5.79-16.42-8.19-25.54-5.84" style="fill: rgb(224, 224, 224); transform-origin: 253.672px 329.321px;" id="elcby8hjbel5m" class="animable"></path><path d="M246.73,323a35.23,35.23,0,0,1,31.51-5.2,25,25,0,0,1-15,6.6,47.62,47.62,0,0,1-16.5-1.4" style="fill: rgb(224, 224, 224); transform-origin: 262.485px 320.374px;" id="elvc5ctb3r0to" class="animable"></path><path d="M244.2,307c-.73-7.41-.26-13.26-.77-20.71-.05-.59-.17-1.31-.73-1.52-.77-.3-1.42.65-1.67,1.44a23.74,23.74,0,0,0,3.16,20.63" style="fill: rgb(224, 224, 224); transform-origin: 242.074px 295.857px;" id="el6xunk4ens4o" class="animable"></path><path d="M243.66,307.82a43.59,43.59,0,0,0,12.28-11.93c2.42-3.32,4.47-7.3,3.92-11.37a11.75,11.75,0,0,0-8.86,4.4,24.74,24.74,0,0,0-4.51,9.08c-1,3.26-1.67,6.61-2.83,9.82" style="fill: rgb(224, 224, 224); transform-origin: 251.805px 296.17px;" id="eldhh2rp8gtat" class="animable"></path><path d="M255.72,304.47a99,99,0,0,0,30.22-17.82c-3.61-1.45-7.74-.58-11.35.88-8.25,3.32-15,8.94-19,16.86" style="fill: rgb(224, 224, 224); transform-origin: 270.765px 295.188px;" id="elq8vj48e3eti" class="animable"></path><path d="M247.05,311.87c5.58.61,11.25,1,16.78.08s10.58-3.06,15.66-5.2a1.88,1.88,0,0,0,1.07-.81,1.23,1.23,0,0,0-.39-1.34,3.14,3.14,0,0,0-1.33-.62c-5.53-1.55-11.49-.83-16.93,1a78.83,78.83,0,0,0-14.86,6.88" style="fill: rgb(224, 224, 224); transform-origin: 263.836px 307.815px;" id="elduhtkipd8w5" class="animable"></path><path d="M215.21,325.62c-3.81-7.68-3.56-16.64-.27-24.56,2.31,3.53,2.59,8,2.17,12.21s-1.7,8.52-1.78,12.73" style="fill: rgb(224, 224, 224); transform-origin: 214.843px 313.53px;" id="el3onb1okjxwl" class="animable"></path><path d="M200,318a34.28,34.28,0,0,0-25.46,10.85,23.79,23.79,0,0,0,13.94-2.59,70.54,70.54,0,0,0,11.95-8" style="fill: rgb(224, 224, 224); transform-origin: 187.485px 323.508px;" id="elzfe1krivg9" class="animable"></path><path d="M189.79,314.54c-4.65-.38-9.12-1-13.59.41a16.32,16.32,0,0,0-10.36,8.79,24.5,24.5,0,0,0,12.74-2.41,74,74,0,0,0,11.21-6.79" style="fill: rgb(224, 224, 224); transform-origin: 177.815px 318.946px;" id="el180zc6e92la" class="animable"></path><path d="M204.92,314.69c-4.18-2.74-8.47-5.53-13.34-6.66s-10.51-.3-13.91,3.37c3.94,2.31,8.73,2.59,13.29,2.58s10.17-.05,14.48,1.47" style="fill: rgb(224, 224, 224); transform-origin: 191.555px 311.505px;" id="eljt3l9a1shf" class="animable"></path><path d="M204.94,314.91c-7.14-7-9.85-19.62-7-29.22a44.48,44.48,0,0,1,7,29.22" style="fill: rgb(224, 224, 224); transform-origin: 201.015px 300.3px;" id="el3bgwqx7ox5e" class="animable"></path><path d="M224.6,295c1.35-3.14,2.3-6.43,3.5-9.62a27.81,27.81,0,0,1,5-8.86A13.2,13.2,0,0,1,242,272a35.68,35.68,0,0,1-17.19,23.12" style="fill: rgb(224, 224, 224); transform-origin: 233.3px 283.56px;" id="elpik1bdy41wd" class="animable"></path><path d="M221,299.17c-2.23-3.07-4.81-7.24-7.83-9.53s-7-3.68-10.66-2.8A24.82,24.82,0,0,0,221,299.17" style="fill: rgb(224, 224, 224); transform-origin: 211.755px 292.872px;" id="elbtfjnpmv2wp" class="animable"></path><path d="M221.75,295.28a52.94,52.94,0,0,1-3.52-11.42A17.83,17.83,0,0,1,220,272.25c3.92,7.42,5.18,15.38,1.93,23.12" style="fill: rgb(224, 224, 224); transform-origin: 220.856px 283.81px;" id="elkp1q5aljd7" class="animable"></path><path d="M224.64,272.25c2.22-7.35,9-12.76,16.22-15.25a6,6,0,0,1,2.84-.42,2.45,2.45,0,0,1,2.1,1.75c.26,1.25-.77,2.37-1.74,3.2a55.18,55.18,0,0,1-19.42,10.72" style="fill: rgb(224, 224, 224); transform-origin: 235.24px 264.402px;" id="el7ntxs27ijo5" class="animable"></path><path d="M224.72,266.24c.28-4.74.57-9.55,2.12-14s4.51-8.71,8.83-10.67c.74,4.79-1.37,9.55-3.92,13.67s-5.62,8-7.15,12.6" style="fill: rgb(224, 224, 224); transform-origin: 230.21px 254.705px;" id="elpd02dgqs7c" class="animable"></path><path d="M224.6,269.5c-1.84-5.36-2-12.16-5.24-16.83-2.24-3.26-5.83-5.49-7.76-8.94a13.58,13.58,0,0,0,.45,10.15,29.52,29.52,0,0,0,5.93,8.5c2.38,2.53,4.41,4.44,6.62,7.12" style="fill: rgb(224, 224, 224); transform-origin: 217.713px 256.615px;" id="el1cqe56447pj" class="animable"></path><path d="M224.64,427.3c-.15,0-.27-35.74-.28-79.83s.1-79.83.24-79.83.27,35.73.28,79.83S224.78,427.3,224.64,427.3Z" style="fill: rgb(224, 224, 224); transform-origin: 224.62px 347.47px;" id="elcpsq5nqhfhu" class="animable"></path><path d="M255.87,320.23a8.21,8.21,0,0,1-1.34.5l-3.7,1.25c-3.12,1.06-7.4,2.6-12.05,4.51s-8.95,3.57-11.42,5.72a8.32,8.32,0,0,0-2.3,3c-.35.84-.41,1.36-.46,1.35s0-.13,0-.38a6.69,6.69,0,0,1,.27-1,8.05,8.05,0,0,1,2.24-3.24,19.91,19.91,0,0,1,4.95-3.07c2-.93,4.18-1.89,6.51-2.85,4.67-1.91,9-3.4,12.14-4.38,1.57-.49,2.86-.85,3.75-1.09A7.21,7.21,0,0,1,255.87,320.23Z" style="fill: rgb(224, 224, 224); transform-origin: 240.224px 328.395px;" id="el50cs48suf95" class="animable"></path><path d="M266.11,295.08a2.54,2.54,0,0,1-.38.4l-1.14,1.08c-1.07,1-2.52,2.28-4.28,3.89l-14.26,12.69c-5.56,4.95-10.37,9.68-13.7,13.24-1.67,1.78-3,3.26-3.88,4.29-.42.47-.76.86-1,1.18a2.19,2.19,0,0,1-.39.39,2.29,2.29,0,0,1,.31-.46c.21-.28.53-.71,1-1.24.85-1.07,2.12-2.59,3.76-4.4a178,178,0,0,1,13.63-13.39c5.58-4.94,10.66-9.38,14.35-12.58l4.39-3.76,1.22-1C266,295.18,266.1,295.06,266.11,295.08Z" style="fill: rgb(224, 224, 224); transform-origin: 246.595px 313.659px;" id="eljv6r78om5si" class="animable"></path><path d="M240.05,318.17c-.15-.06,1-2.75,2.17-6.14s1.72-6.26,1.87-6.23a21.34,21.34,0,0,1-1.38,6.4,40.51,40.51,0,0,1-1.73,4.29A7,7,0,0,1,240.05,318.17Z" style="fill: rgb(224, 224, 224); transform-origin: 242.063px 311.985px;" id="elvic05d8979" class="animable"></path><path d="M224.67,339.81a7,7,0,0,1-.86-1l-2.2-2.81c-1.84-2.39-4.39-5.68-7.25-9.28s-5.49-6.84-7.39-9.17l-2.24-2.78a6.19,6.19,0,0,1-.78-1.06,5.73,5.73,0,0,1,.93.93c.57.62,1.38,1.53,2.37,2.67,2,2.28,4.65,5.48,7.52,9.09s5.36,6.93,7.14,9.38c.88,1.22,1.59,2.22,2.06,2.91A6.22,6.22,0,0,1,224.67,339.81Z" style="fill: rgb(224, 224, 224); transform-origin: 214.31px 326.76px;" id="elwrictsh7nun" class="animable"></path><path d="M217.82,331a12.57,12.57,0,0,1-2.87-5.38,15.15,15.15,0,0,1-.65-5.41l.23,0c-.11.41-.18.63-.22.62s0-.24,0-.66l.23,0a24.87,24.87,0,0,0,.91,5.27A41.07,41.07,0,0,0,217.82,331Z" style="fill: rgb(224, 224, 224); transform-origin: 216.046px 325.585px;" id="elsbir7pcsywm" class="animable"></path><path d="M209,319.89a9.31,9.31,0,0,0-2-1.16,13.35,13.35,0,0,0-5.56-.44,33.81,33.81,0,0,0-5.6.9,15.5,15.5,0,0,1-2.3.55,7.68,7.68,0,0,1,2.2-.9,26.06,26.06,0,0,1,5.66-1.07,12.16,12.16,0,0,1,5.74.62A3.63,3.63,0,0,1,209,319.89Z" style="fill: rgb(224, 224, 224); transform-origin: 201.27px 318.777px;" id="elhwavgvgogww" class="animable"></path><path d="M206.88,317.2c0,.08-1.17-.47-3.07-1.12a31.86,31.86,0,0,0-7.66-1.58,31.47,31.47,0,0,0-7.81.4c-2,.35-3.17.72-3.2.64a3,3,0,0,1,.81-.35,20.54,20.54,0,0,1,2.32-.65,27.62,27.62,0,0,1,7.92-.55,27.33,27.33,0,0,1,7.75,1.75,19.06,19.06,0,0,1,2.19,1C206.63,317,206.9,317.16,206.88,317.2Z" style="fill: rgb(224, 224, 224); transform-origin: 196.011px 315.56px;" id="elndn7o2xc1k" class="animable"></path><path d="M224.6,305.8a64,64,0,0,1-2.24-7.78,65.5,65.5,0,0,1-1.74-7.9,63.28,63.28,0,0,1,2.24,7.78A62.43,62.43,0,0,1,224.6,305.8Z" style="fill: rgb(224, 224, 224); transform-origin: 222.61px 297.96px;" id="el0tfbdubq9brr" class="animable"></path><path d="M224.74,305.8a37.14,37.14,0,0,0-2.48-4.66,20.71,20.71,0,0,0-3.65-3.77,3.5,3.5,0,0,1,1.41.73,11.14,11.14,0,0,1,2.66,2.75A10.21,10.21,0,0,1,224.74,305.8Z" style="fill: rgb(224, 224, 224); transform-origin: 221.675px 301.585px;" id="el0tahcfxj0uv" class="animable"></path><path d="M224.64,408.25c-.06,0-.17-.86-.57-2.38a34.07,34.07,0,0,0-2.39-6.19c-2.47-5.05-7-11.45-12.67-17.85-2.83-3.24-5.58-6.29-7.91-9.21a64.34,64.34,0,0,1-5.65-8.15,39.19,39.19,0,0,1-2.85-6.05c-.26-.74-.46-1.33-.56-1.73a3,3,0,0,1-.15-.62c.05,0,.31.82.9,2.28a43.9,43.9,0,0,0,3,5.94,67.55,67.55,0,0,0,5.71,8c2.33,2.89,5.08,5.93,7.92,9.17,5.72,6.42,10.21,12.9,12.61,18a30.94,30.94,0,0,1,2.26,6.3c.16.77.27,1.38.31,1.79A4.93,4.93,0,0,1,224.64,408.25Z" style="fill: rgb(224, 224, 224); transform-origin: 208.265px 382.16px;" id="elr4s6qpurph8" class="animable"></path><path d="M252.86,376.36a10.67,10.67,0,0,1-1.48.83,33.36,33.36,0,0,0-3.83,2.54,42.82,42.82,0,0,0-5,4.6c-1.77,1.87-3.59,4-5.45,6.36-3.72,4.67-7.2,8.79-9.28,12.09-1.06,1.63-1.83,3-2.33,4s-.78,1.5-.81,1.49a1.25,1.25,0,0,1,.13-.42c.11-.27.26-.67.5-1.16a36.49,36.49,0,0,1,2.2-4.09c2-3.37,5.47-7.56,9.18-12.21,1.87-2.33,3.71-4.51,5.51-6.37a40.82,40.82,0,0,1,5.17-4.56,25.89,25.89,0,0,1,4-2.42c.49-.25.89-.4,1.15-.51A2,2,0,0,1,252.86,376.36Z" style="fill: rgb(224, 224, 224); transform-origin: 238.77px 392.315px;" id="el8ht3sxmvxbs" class="animable"></path><path d="M253.41,386.71a22,22,0,0,1-3.12.45,41.3,41.3,0,0,0-7.42,1.46,22.18,22.18,0,0,0-6.64,3.49c-1.53,1.18-2.25,2.16-2.32,2.1s.12-.28.46-.72a12.16,12.16,0,0,1,1.63-1.67,20.27,20.27,0,0,1,6.71-3.69,33.71,33.71,0,0,1,7.54-1.33A17,17,0,0,1,253.41,386.71Z" style="fill: rgb(224, 224, 224); transform-origin: 243.653px 390.444px;" id="elyz54xehvub" class="animable"></path><path d="M234.82,393.07c-.16-.09,1.25-2.24,2.34-5.14s1.27-5.48,1.45-5.45a5,5,0,0,1-.05,1.68,18,18,0,0,1-.91,3.95,19.63,19.63,0,0,1-1.82,3.63C235.28,392.61,234.88,393.11,234.82,393.07Z" style="fill: rgb(224, 224, 224); transform-origin: 236.733px 387.776px;" id="el3nqkc7j1y8" class="animable"></path><path d="M262,348.6a2.79,2.79,0,0,1-.5.26l-1.47.67c-.64.28-1.42.63-2.3,1.09s-1.92.93-3,1.57l-1.7,1c-.6.34-1.18.74-1.8,1.13-1.26.77-2.52,1.71-3.87,2.67a66.25,66.25,0,0,0-14.87,15.39c-.91,1.37-1.81,2.66-2.53,3.95-.37.63-.75,1.23-1.07,1.83s-.62,1.19-.91,1.74c-.61,1.1-1,2.14-1.47,3s-.75,1.69-1,2.34l-.61,1.49a2.87,2.87,0,0,1-.25.51,1.91,1.91,0,0,1,.15-.54c.14-.41.31-.91.53-1.53a24.12,24.12,0,0,1,.93-2.38c.4-.92.81-2,1.4-3.09l.89-1.77c.31-.61.69-1.22,1-1.86.71-1.3,1.6-2.61,2.51-4a68.41,68.41,0,0,1,6.83-8.39,69.83,69.83,0,0,1,8.15-7.12c1.36-.95,2.64-1.89,3.92-2.64.63-.38,1.22-.78,1.82-1.11l1.74-.95c1.09-.63,2.13-1.08,3-1.51a25.45,25.45,0,0,1,2.35-1l1.52-.58A2,2,0,0,1,262,348.6Z" style="fill: rgb(224, 224, 224); transform-origin: 243.325px 367.92px;" id="elet8958t3f0e" class="animable"></path><path d="M239.66,363.56a3.76,3.76,0,0,1,1.23-1.83,7.76,7.76,0,0,1,5-1.89,13.48,13.48,0,0,1,5.21,1,7.69,7.69,0,0,1,2,1,12.1,12.1,0,0,1-2.09-.61,15.8,15.8,0,0,0-5.07-.85,8,8,0,0,0-4.73,1.66A17.56,17.56,0,0,0,239.66,363.56Z" style="fill: rgb(224, 224, 224); transform-origin: 246.38px 361.7px;" id="eliaxpkot1i3j" class="animable"></path><path d="M236.33,367a19.44,19.44,0,0,0,1.4-4.57,19,19,0,0,0-.31-4.78A3.34,3.34,0,0,1,238,359a9.42,9.42,0,0,1,.24,3.5,9.53,9.53,0,0,1-1,3.35A3.25,3.25,0,0,1,236.33,367Z" style="fill: rgb(224, 224, 224); transform-origin: 237.318px 362.325px;" id="elrw3f5dqvojo" class="animable"></path><path d="M200,413.37c.77,13.66,4.88,27.55,11.22,41.6H238.7c6-13.91,9.87-27.78,10.55-41.6Z" style="fill: rgb(224, 224, 224); transform-origin: 224.625px 434.17px;" id="el0n8g7ossp4v" class="animable"></path><path d="M244.79,435.47c0,.15-9.07.26-20.25.26s-20.24-.11-20.24-.26,9.06-.26,20.24-.26S244.79,435.33,244.79,435.47Z" style="fill: rgb(250, 250, 250); transform-origin: 224.545px 435.47px;" id="elnmbe0dsx2yi" class="animable"></path><path d="M244.17,440.42c0,.14-8.5.26-19,.26s-19-.12-19-.26,8.5-.26,19-.26S244.17,440.28,244.17,440.42Z" style="fill: rgb(250, 250, 250); transform-origin: 225.17px 440.42px;" id="elaxv9ijnnewt" class="animable"></path><path d="M211.61,422.34a77.43,77.43,0,0,1,0,12.68,77.43,77.43,0,0,1,0-12.68Z" style="fill: rgb(250, 250, 250); transform-origin: 211.61px 428.68px;" id="ely0v6udfbuw" class="animable"></path><path d="M226.36,422.34a83,83,0,0,1,0,13.13,83,83,0,0,1,0-13.13Z" style="fill: rgb(250, 250, 250); transform-origin: 226.36px 428.905px;" id="elniuxaryd24h" class="animable"></path><path d="M240.21,422.23a86.33,86.33,0,0,1,0,13.39,86.33,86.33,0,0,1,0-13.39Z" style="fill: rgb(250, 250, 250); transform-origin: 240.21px 428.925px;" id="eldisn0759te6" class="animable"></path><path d="M248.38,422.34c0,.14-10.64.26-23.75.26s-23.75-.12-23.75-.26,10.63-.26,23.75-.26S248.38,422.19,248.38,422.34Z" style="fill: rgb(250, 250, 250); transform-origin: 224.63px 422.34px;" id="eleobx0hagzel" class="animable"></path></g><g id="freepik--Floor--inject-296" class="animable" style="transform-origin: 375px 455.245px;"><path d="M713.4,455.23c0,.14-151.52.26-338.38.26s-338.42-.12-338.42-.26S188.09,455,375,455,713.4,455.08,713.4,455.23Z" style="fill: rgb(38, 50, 56); transform-origin: 375px 455.245px;" id="elavh3309ym1" class="animable"></path></g><g id="freepik--Plant--inject-296" class="animable" style="transform-origin: 533.51px 361.645px;"><path d="M495.93,272.41c9.53,4.94,16.83,13.43,22.08,22.79s8.64,19.61,12,29.81l2.94,52.55c-11.09-18.86-20-41-22.39-62.76l7.38-.66c-4.95-.75-9.1-4.34-11.74-8.59s-4-9.14-5.33-14l9,1.34A33.37,33.37,0,0,1,495.93,272.41Z" style="fill: rgb(69, 90, 100); transform-origin: 514.44px 324.985px;" id="elp8go1knxju8" class="animable"></path><g id="eldj13fgvy8rh"><g style="opacity: 0.3; transform-origin: 514.44px 324.985px;" class="animable"><path d="M495.93,272.41c9.53,4.94,16.83,13.43,22.08,22.79s8.64,19.61,12,29.81l2.94,52.55c-11.09-18.86-20-41-22.39-62.76l7.38-.66c-4.95-.75-9.1-4.34-11.74-8.59s-4-9.14-5.33-14l9,1.34A33.37,33.37,0,0,1,495.93,272.41Z" id="el8nnpjomdp7v" class="animable" style="transform-origin: 514.44px 324.985px;"></path></g></g><path d="M534.58,389.88s24.06-28.8,23.78-56.29h-9.72s10.56-6.94,9.72-10.83-1.11-18.6-1.11-18.6l-8.89,2.22s6.67-3.33,7.5-8.61-1.94-29.71-1.94-29.71-10.83,11.39-14.16,23.05-12.08,25.27-9.51,60.81S534.58,389.88,534.58,389.88Z" style="fill: rgb(69, 90, 100); transform-origin: 544.096px 328.97px;" id="elgr2fr5uhkyk" class="animable"></path><path d="M522.38,392.59s-26.06-17.36-31.85-39.52l7.81-2.13s-10-3.27-10.18-6.58-3.18-15.2-3.18-15.2l7.63-.16s-6.09-1.22-7.91-5.28-4.94-24.31-4.94-24.31,11.2,6.79,16.43,15.43,15.24,17.68,20.95,46.81S522.38,392.59,522.38,392.59Z" style="fill: rgb(69, 90, 100); transform-origin: 501.075px 346px;" id="elf5zgwoztswi" class="animable"></path><path d="M547.34,293.17a1.22,1.22,0,0,1,0,.31c0,.23-.1.52-.17.89-.16.82-.38,2-.67,3.44s-.67,3.31-1.06,5.43-.88,4.54-1.34,7.21c-1,5.35-2,11.73-3.14,18.83s-2.12,14.93-3.09,23.17-1.68,16.1-2.27,23.26-1,13.62-1.25,19.05c-.16,2.71-.24,5.17-.34,7.33s-.16,4-.2,5.53-.1,2.66-.13,3.5l0,.91a1.3,1.3,0,0,1,0,.31,1.09,1.09,0,0,1,0-.31c0-.24,0-.54,0-.91,0-.84,0-2,0-3.5s0-3.38.12-5.54.13-4.62.26-7.34c.21-5.43.61-11.89,1.14-19.06s1.29-15.05,2.24-23.29,2-16.07,3.13-23.18,2.21-13.49,3.24-18.82c.49-2.68,1-5.09,1.42-7.2s.82-3.94,1.15-5.42.59-2.6.77-3.42l.21-.88Z" style="fill: rgb(38, 50, 56); transform-origin: 540.514px 352.755px;" id="elvcwgp6kjg2" class="animable"></path><path d="M537.92,407.51s22-25,28.85-40.08l-5.16-2.21c3.74.62,7.57-1,10.47-3.43s5-5.65,7.12-8.82l-6.8-1.14a25.34,25.34,0,0,0,14.86-11.51c-8,1.32-15.28,5.73-21.27,11.23a106.14,106.14,0,0,0-12.88,14.93,50.74,50.74,0,0,0-5,8.23C544.41,382.35,537.9,398.33,537.92,407.51Z" style="fill: rgb(69, 90, 100); transform-origin: 562.59px 373.915px;" id="elzticz09toys" class="animable"></path><path d="M490.18,314a1.33,1.33,0,0,1,.15.23l.38.71,1.42,2.73c1.23,2.37,2.95,5.84,5,10.15,4.13,8.63,9.52,20.7,14.79,34.31s9.4,26.18,12.14,35.35c1.37,4.58,2.43,8.3,3.12,10.88l.78,3,.19.78a1,1,0,0,1,.05.27,1.4,1.4,0,0,1-.1-.26l-.24-.76-.88-2.95c-.74-2.57-1.86-6.27-3.27-10.84-2.83-9.12-7-21.65-12.27-35.26s-10.6-25.68-14.65-34.34c-2-4.33-3.68-7.82-4.86-10.22-.57-1.18-1-2.1-1.34-2.77-.13-.3-.24-.54-.33-.73A1.16,1.16,0,0,1,490.18,314Z" style="fill: rgb(38, 50, 56); transform-origin: 509.19px 363.205px;" id="elmun56k4ksg" class="animable"></path><path d="M536.05,418.21a1.29,1.29,0,0,1,0-.47c0-.36.07-.81.12-1.34.11-1.16.35-2.84.71-4.89a88.87,88.87,0,0,1,11.48-30.41c1.09-1.78,2-3.2,2.71-4.14l.79-1.09a1.55,1.55,0,0,1,.3-.36s-.06.15-.22.42l-.71,1.14c-.63,1-1.51,2.42-2.55,4.22a99.78,99.78,0,0,0-7,14.67,102,102,0,0,0-4.46,15.61c-.4,2.05-.7,3.71-.87,4.86-.09.52-.16,1-.22,1.32A1.71,1.71,0,0,1,536.05,418.21Z" style="fill: rgb(38, 50, 56); transform-origin: 544.094px 396.86px;" id="elk55vr9qmnx" class="animable"></path><rect x="507" y="412.34" width="48.19" height="9.83" style="fill: rgb(0, 255, 136); transform-origin: 531.095px 417.255px;" id="elzvo317lhy59" class="animable"></rect><polygon points="550.59 422.17 545.38 455.23 516.26 455.23 511.4 422.17 550.59 422.17" style="fill: rgb(0, 255, 136); transform-origin: 530.995px 438.7px;" id="el9ed78mwzpx" class="animable"></polygon><path d="M510,422.17c0-.15,9.12-.26,20.36-.26s20.36.11,20.36.26-9.11.26-20.36.26S510,422.31,510,422.17Z" style="fill: rgb(38, 50, 56); transform-origin: 530.36px 422.17px;" id="elty5cqbzemq" class="animable"></path></g><g id="freepik--Device--inject-296" class="animable" style="transform-origin: 372.498px 257.768px;"><rect x="235.15" y="60.77" width="274.71" height="394.24" rx="12.26" style="fill: rgb(38, 50, 56); transform-origin: 372.505px 257.89px;" id="el88fosd12opi" class="animable"></rect><path d="M497.6,455l.86-.06a6.87,6.87,0,0,0,1.05-.12,11.69,11.69,0,0,0,1.44-.32,12.18,12.18,0,0,0,3.73-1.82,12.4,12.4,0,0,0,3.75-4.31,12.93,12.93,0,0,0,1.14-3.26,19.19,19.19,0,0,0,.22-3.85c0-2.7,0-5.66,0-8.87,0-6.41,0-13.81,0-22.14,0-33.32-.05-81.53-.08-141.11,0-29.78,0-62.41,0-97.44q0-26.27,0-54.28,0-14,0-28.39V74.55a19.42,19.42,0,0,0-.19-3.59,11.4,11.4,0,0,0-1.14-3.39,12.14,12.14,0,0,0-4.95-5.09,13.22,13.22,0,0,0-3.39-1.22,19.15,19.15,0,0,0-3.65-.23H247.44a12,12,0,0,0-11.8,9.76,21.32,21.32,0,0,0-.21,4.17V87.64q0,16.83,0,33.44v65.38c0,42.87,0,84.22,0,123.61s0,76.82,0,111.85v13q0,3.22,0,6.42a20.47,20.47,0,0,0,.15,3.15,11.93,11.93,0,0,0,.83,3,12.06,12.06,0,0,0,9.38,7.15,20.79,20.79,0,0,0,3.07.13H258l46.76,0,141.09.08,38.37.05,10,0,3.4,0-3.4,0-10,0-38.37.05-141.09.09h-56a20.62,20.62,0,0,1-3.13-.14,12.49,12.49,0,0,1-9.72-7.41,11.92,11.92,0,0,1-.87-3.1,19.35,19.35,0,0,1-.15-3.22q0-3.19,0-6.42v-13c0-35,0-72.46,0-111.85s0-80.74,0-123.61q0-32.15,0-65.38V75a22,22,0,0,1,.23-4.27A12.51,12.51,0,0,1,247.44,60.5H496.29a18.23,18.23,0,0,1,3.75.24A13.79,13.79,0,0,1,503.57,62a12.78,12.78,0,0,1,5.17,5.31,12.24,12.24,0,0,1,1.18,3.53,19.88,19.88,0,0,1,.19,3.68v42.88q0,28,0,54.28c0,35,0,67.66,0,97.44,0,59.58-.07,107.79-.09,141.11,0,8.33,0,15.73,0,22.14q0,4.82,0,8.87a19.45,19.45,0,0,1-.24,3.87,13,13,0,0,1-1.17,3.29,12.37,12.37,0,0,1-3.79,4.33,12.23,12.23,0,0,1-3.77,1.8,9.94,9.94,0,0,1-1.44.31,8.29,8.29,0,0,1-1.06.11C497.89,455,497.6,455,497.6,455Z" style="fill: rgb(38, 50, 56); transform-origin: 372.498px 257.768px;" id="elx6rftifgw3g" class="animable"></path><path d="M400.65,81.61h-56.1a3.91,3.91,0,0,1-3.91-3.92h0a3.91,3.91,0,0,1,3.91-3.91h56.1a3.92,3.92,0,0,1,3.92,3.91h0A3.92,3.92,0,0,1,400.65,81.61Z" style="fill: rgb(69, 90, 100); transform-origin: 372.605px 77.695px;" id="elb72spjsb9eg" class="animable"></path><rect x="243.57" y="88.9" width="257.39" height="329.23" style="fill: rgb(255, 255, 255); transform-origin: 372.265px 253.515px;" id="ela47p5rmgodg" class="animable"></rect><rect x="247.87" y="97.89" width="247.91" height="312.65" style="fill: rgb(250, 250, 250); transform-origin: 371.825px 254.215px;" id="elddgu8rikkf" class="animable"></rect><rect x="247.87" y="97.89" width="247.91" height="19.13" style="fill: rgb(224, 224, 224); transform-origin: 371.825px 107.455px;" id="elp977qkgijy" class="animable"></rect><circle cx="258.42" cy="106.49" r="3.38" style="fill: rgb(250, 250, 250); transform-origin: 258.42px 106.49px;" id="el70in32p9455" class="animable"></circle><path d="M271.34,106.49a3.38,3.38,0,1,1-3.38-3.38A3.38,3.38,0,0,1,271.34,106.49Z" style="fill: rgb(250, 250, 250); transform-origin: 267.96px 106.49px;" id="elgsdofidcvaf" class="animable"></path><circle cx="277.49" cy="106.49" r="3.38" style="fill: rgb(250, 250, 250); transform-origin: 277.49px 106.49px;" id="elrd7y10o6guq" class="animable"></circle><rect x="314.48" y="126.49" width="116.24" height="40.12" rx="19.03" style="fill: rgb(224, 224, 224); transform-origin: 372.6px 146.55px;" id="elp0mcgs22gz" class="animable"></rect><rect x="271.34" y="178.23" width="54.73" height="9.54" rx="4.53" style="fill: rgb(224, 224, 224); transform-origin: 298.705px 183px;" id="el0usli65ooxg9" class="animable"></rect><rect x="393.06" y="278.97" width="54.73" height="9.54" rx="4.53" style="fill: rgb(224, 224, 224); transform-origin: 420.425px 283.74px;" id="el189cufo6lb" class="animable"></rect><rect x="343.99" y="178.23" width="54.73" height="9.54" rx="4.53" style="fill: rgb(224, 224, 224); transform-origin: 371.355px 183px;" id="el1jtv0fioxpf" class="animable"></rect><rect x="413.12" y="178.23" width="54.73" height="9.54" rx="4.53" style="fill: rgb(224, 224, 224); transform-origin: 440.485px 183px;" id="elka8zqpshrj" class="animable"></rect><rect x="247.87" y="196.86" width="247.91" height="60.05" style="fill: rgb(224, 224, 224); transform-origin: 371.825px 226.885px;" id="elt4ff6li7eg" class="animable"></rect><rect x="261.01" y="218.49" width="46.99" height="9.54" rx="4.53" style="fill: rgb(255, 255, 255); transform-origin: 284.505px 223.26px;" id="elccb0ntm5aa" class="animable"></rect><rect x="261.01" y="233.52" width="75.09" height="4.98" rx="2.36" style="fill: rgb(255, 255, 255); transform-origin: 298.555px 236.01px;" id="elrnu9x5yfndj" class="animable"></rect><rect x="393.29" y="297.1" width="75.09" height="4.98" rx="2.36" style="fill: rgb(224, 224, 224); transform-origin: 430.835px 299.59px;" id="el5ydowrzy6zb" class="animable"></rect><rect x="393.06" y="309.49" width="40.12" height="4.98" rx="2.36" style="fill: rgb(224, 224, 224); transform-origin: 413.12px 311.98px;" id="el9w0ycg9arrv" class="animable"></rect><rect x="280.52" y="348.42" width="54.73" height="9.54" rx="4.53" style="fill: rgb(224, 224, 224); transform-origin: 307.885px 353.19px;" id="elgwijp6v8haw" class="animable"></rect><rect x="280.75" y="366.54" width="75.09" height="4.98" rx="2.36" style="fill: rgb(224, 224, 224); transform-origin: 318.295px 369.03px;" id="elek5911qnemg" class="animable"></rect><rect x="280.52" y="378.93" width="40.12" height="4.98" rx="2.36" style="fill: rgb(224, 224, 224); transform-origin: 300.58px 381.42px;" id="elgcg8ftkaecv" class="animable"></rect><rect x="358.76" y="196.56" width="137.02" height="60.05" style="fill: rgb(235, 235, 235); transform-origin: 427.27px 226.585px;" id="elnjye0rwk6f8" class="animable"></rect><rect x="270.45" y="271.12" width="100.9" height="51.2" style="fill: rgb(235, 235, 235); transform-origin: 320.9px 296.72px;" id="elon6pblzobq" class="animable"></rect><rect x="384.43" y="342.56" width="92.82" height="51.2" style="fill: rgb(235, 235, 235); transform-origin: 430.84px 368.16px;" id="eluv9ucfkb6qr" class="animable"></rect><rect x="288.33" y="222.33" width="179.52" height="50.44" rx="23.93" style="fill: rgb(0, 255, 136); transform-origin: 378.09px 247.55px;" id="el9cxbc3631m" class="animable"></rect><path d="M339.93,252.49l1.05-2.35a7,7,0,0,0,3.7,1.11c1.32,0,1.83-.37,1.83-.91,0-1.79-6.38-.49-6.38-4.66,0-2,1.63-3.64,5-3.64a8.35,8.35,0,0,1,4.08,1l-1,2.36a6.65,6.65,0,0,0-3.11-.87c-1.34,0-1.82.45-1.82,1,0,1.72,6.37.43,6.37,4.57,0,2-1.63,3.63-5,3.63A8.93,8.93,0,0,1,339.93,252.49Z" style="fill: rgb(255, 255, 255); transform-origin: 344.79px 247.885px;" id="eluu782afnd5" class="animable"></path><path d="M353.34,244.78h-3.45v-2.52H360v2.52h-3.44v8.72h-3.17Z" style="fill: rgb(255, 255, 255); transform-origin: 354.945px 247.88px;" id="eld1eypndzmpv" class="animable"></path><path d="M387.77,244.78h-3.45v-2.52h10.06v2.52H391v8.72h-3.18Z" style="fill: rgb(255, 255, 255); transform-origin: 389.35px 247.88px;" id="elewmx7b5k53c" class="animable"></path><path d="M368.1,251.31h-4.75l-.88,2.19h-3.24l5-11.24h3.13l5,11.24H369Zm-.93-2.34-1.44-3.59L364.28,249Z" style="fill: rgb(255, 255, 255); transform-origin: 365.795px 247.88px;" id="eleqz97ysjqg" class="animable"></path><path d="M378.1,250.51h-1.73v3h-3.18V242.26h5.14c3.06,0,5,1.59,5,4.16a3.74,3.74,0,0,1-2.2,3.55l2.43,3.53h-3.41Zm0-5.74h-1.77v3.29h1.77c1.31,0,2-.61,2-1.64S379.45,244.77,378.14,244.77Z" style="fill: rgb(255, 255, 255); transform-origin: 378.375px 247.885px;" id="elx1otl2zhxns" class="animable"></path><path d="M401,242.26h5.31c3.73,0,6.28,2.17,6.28,5.62s-2.55,5.62-6.28,5.62H401Zm5.19,8.7a3.08,3.08,0,1,0,0-6.16h-2V251Z" style="fill: rgb(255, 255, 255); transform-origin: 406.795px 247.88px;" id="elxe94gcw6nt" class="animable"></path><path d="M423.24,251v2.46h-9V242.26H423v2.46h-5.66v1.89h5V249h-5v2Z" style="fill: rgb(255, 255, 255); transform-origin: 418.74px 247.86px;" id="el8urm70waxcs" class="animable"></path><path d="M435.15,253.5l0-6-2.89,4.85h-1.41l-2.88-4.69v5.8H425V242.26h2.61l3.95,6.49,3.85-6.49H438l0,11.24Z" style="fill: rgb(255, 255, 255); transform-origin: 431.5px 247.88px;" id="ely4sp6z2nz4c" class="animable"></path><path d="M439.74,247.88c0-3.37,2.65-5.84,6.25-5.84s6.24,2.47,6.24,5.84-2.65,5.84-6.24,5.84S439.74,251.25,439.74,247.88Zm9.28,0a3,3,0,1,0-3,3.21A3,3,0,0,0,449,247.88Z" style="fill: rgb(255, 255, 255); transform-origin: 445.985px 247.88px;" id="el9i5kg6nb894" class="animable"></path><path d="M308.05,247.55V237.36a3.13,3.13,0,0,1,4.7-2.71l8.82,5.09,8.83,5.1a3.14,3.14,0,0,1,0,5.43l-8.83,5.09-8.82,5.1a3.14,3.14,0,0,1-4.7-2.72Z" style="fill: rgb(255, 255, 255); transform-origin: 320.006px 247.551px;" id="elqgv7n5bej8h" class="animable"></path><path d="M495.78,410.54c0-2.05-.09-126.93-.23-312.65l.23.24-247.88,0h0l.26-.26c0,115.79,0,223.37,0,312.65l-.22-.22,247.91.22-247.91.21h-.21v-.21c0-89.28,0-196.86,0-312.65v-.26h.29l247.88,0H496v.23C495.88,283.61,495.78,408.49,495.78,410.54Z" style="fill: rgb(38, 50, 56); transform-origin: 371.865px 254.17px;" id="eljcwt6qvnb1f" class="animable"></path></g><g id="freepik--speech-bubble-2--inject-296" class="animable" style="transform-origin: 552.761px 93.657px;"><path d="M579.14,115.69l-2.76-8.16A27.38,27.38,0,1,0,570,115h0Z" style="fill: rgb(255, 255, 255); transform-origin: 552.708px 93.7716px;" id="els01qa5flobm" class="animable"></path><path d="M579.14,115.69l-.57,0-1.74-.11-6.88-.46a.11.11,0,0,1-.11-.13.14.14,0,0,1,0-.06h0l.17.16a27.29,27.29,0,0,1-12.29,5.7,26.62,26.62,0,0,1-8.81.17,27.25,27.25,0,0,1-9.44-3.12,27.53,27.53,0,0,1-7.79-41.93,27.36,27.36,0,0,1,10.74-7.79A28.15,28.15,0,0,1,555,66.14a27.44,27.44,0,0,1,11.4,3.52,27.85,27.85,0,0,1,8.31,7.27,27.57,27.57,0,0,1,5.63,17.71,27.25,27.25,0,0,1-3.84,13v-.09l2,6.12.49,1.56c.11.34.16.51.16.51s-.08-.19-.21-.55l-.55-1.57c-.49-1.38-1.19-3.39-2.11-6a.17.17,0,0,1,0-.1A27.2,27.2,0,0,0,566.13,70.1a26.8,26.8,0,0,0-11.19-3.43,27.44,27.44,0,0,0-12.28,1.92,26.75,26.75,0,0,0-10.53,7.64A27.08,27.08,0,0,0,549,120.51a26.71,26.71,0,0,0,8.68-.12,27.37,27.37,0,0,0,12.21-5.52.12.12,0,0,1,.17,0,.14.14,0,0,1,0,.15h0l-.09-.19,6.79.6,1.77.17Z" style="fill: rgb(38, 50, 56); transform-origin: 552.761px 93.657px;" id="el316pgznopw5" class="animable"></path><path d="M546.77,87.14h4.16a3.54,3.54,0,0,1,3.63-3.56,3.36,3.36,0,0,1,3.26,2.15,3.73,3.73,0,0,1-.3,3.37c-.7,1.16-2.25,2.22-5,1.73v9.37h4.11V94.71a8,8,0,0,0,5.77-7.85c0-6.08-5.45-7.49-7.79-7.49C552.78,79.37,546.69,79.8,546.77,87.14Z" style="fill: rgb(38, 50, 56); transform-origin: 554.585px 89.785px;" id="eldguyfz9nupi" class="animable"></path><rect x="552.46" y="102.14" width="4.17" height="3.9" style="fill: rgb(38, 50, 56); transform-origin: 554.545px 104.09px;" id="elf4xjkh40ofs" class="animable"></rect></g><g id="freepik--speech-bubble-1--inject-296" class="animable" style="transform-origin: 186.87px 118.702px;"><path d="M157.44,135.19l4.43-7.55a27.86,27.86,0,1,1,4.85,8.72v0Z" style="fill: rgb(255, 255, 255); transform-origin: 186.774px 118.677px;" id="eltktl25x8ebk" class="animable"></path><path d="M157.44,135.19s.22,0,.62.06l1.8.2,6.88.82-.11.15h0a.11.11,0,0,1,0-.15.12.12,0,0,1,.14,0,27.72,27.72,0,0,0,11,8,26.89,26.89,0,0,0,8.62,1.92,27.55,27.55,0,0,0,26-40.61,27.22,27.22,0,0,0-8.9-9.8,28.21,28.21,0,0,0-11.84-4.46,27.7,27.7,0,0,0-21.5,6.49A27.66,27.66,0,0,0,162,127.61a.08.08,0,0,1,0,.08c-1.45,2.42-2.56,4.28-3.33,5.55l-.88,1.45-.31.5s.08-.16.26-.48l.82-1.44c.75-1.31,1.84-3.22,3.26-5.68v.08a27.83,27.83,0,0,1,8.14-30.13,28.11,28.11,0,0,1,9.78-5.5,27.77,27.77,0,0,1,12.07-1.14,28.63,28.63,0,0,1,12.05,4.52,27.63,27.63,0,0,1,9.07,10,28,28,0,0,1-16.43,40.09,27.74,27.74,0,0,1-10,1.15,27.19,27.19,0,0,1-8.72-2,27.74,27.74,0,0,1-11.05-8.22l.18-.11h0a.12.12,0,0,1-.06.15h-.06l-6.94-1-1.76-.25Z" style="fill: rgb(38, 50, 56); transform-origin: 186.87px 118.702px;" id="elj6kt9y95qgl" class="animable"></path><path d="M180.82,118.72a2.65,2.65,0,1,1-2.65-2.64A2.65,2.65,0,0,1,180.82,118.72Z" style="fill: rgb(38, 50, 56); transform-origin: 178.17px 118.73px;" id="elv4vg49h0gh" class="animable"></path><path d="M191.39,118.72a2.64,2.64,0,1,1-2.64-2.64A2.65,2.65,0,0,1,191.39,118.72Z" style="fill: rgb(38, 50, 56); transform-origin: 188.75px 118.72px;" id="el8sc3hbseps6" class="animable"></path><path d="M201.94,117.4a2.64,2.64,0,1,1-3.61-1A2.64,2.64,0,0,1,201.94,117.4Z" style="fill: rgb(38, 50, 56); transform-origin: 199.638px 118.693px;" id="el2k0shzhxlbx" class="animable"></path></g><g id="freepik--character-2--inject-296" class="animable" style="transform-origin: 626.003px 272.219px;"><path d="M638.39,115.22a80.18,80.18,0,0,0,3.67-13.41,28,28,0,0,0-.94-13.74c-.23-.66-2.27-5.11-3-5-.5,0,.74,4.18.48,4.62-2.47,4.11-3.18,9.09-2.86,13.88a62.81,62.81,0,0,0,2.62,13.7" style="fill: rgb(38, 50, 56); transform-origin: 639.091px 99.169px;" id="elbu2wwpqh77" class="animable"></path><path d="M638.22,139l.84-41.48c.52-11.63-5.81-21.62-17.44-21.82l-1.08,0a20.81,20.81,0,0,0-19.93,20c-.4,10.08-.71,21.22-.42,26.61.6,11.15,11.83,12.42,11.83,12.42s0,1,0,4.27l16.82,9.43,4-.37Z" style="fill: rgb(174, 116, 97); transform-origin: 619.583px 112.065px;" id="elnh62kza0dt" class="animable"></path><path d="M612,134.75a26.91,26.91,0,0,0,14.35-4.89s-3.15,8.53-14.32,8Z" style="fill: rgb(111, 68, 57); transform-origin: 619.175px 133.872px;" id="el7v9r7w849ys" class="animable"></path><path d="M604,105.35a1.59,1.59,0,0,0,1.6,1.54,1.52,1.52,0,0,0,1.58-1.5,1.59,1.59,0,0,0-1.6-1.55A1.52,1.52,0,0,0,604,105.35Z" style="fill: rgb(38, 50, 56); transform-origin: 605.59px 105.365px;" id="elzbryh3igzz" class="animable"></path><path d="M603.18,100.55c.21.2,1.38-.74,3.09-.81s3,.74,3.19.52-.13-.46-.7-.84a4.39,4.39,0,0,0-2.56-.67,4.22,4.22,0,0,0-2.44.9C603.24,100.08,603.08,100.46,603.18,100.55Z" style="fill: rgb(38, 50, 56); transform-origin: 606.333px 99.6612px;" id="elq4gqzv3qsq" class="animable"></path><path d="M618.45,105.35a1.59,1.59,0,0,0,1.6,1.54,1.53,1.53,0,0,0,1.59-1.5,1.6,1.6,0,0,0-1.6-1.55A1.53,1.53,0,0,0,618.45,105.35Z" style="fill: rgb(38, 50, 56); transform-origin: 620.045px 105.365px;" id="eli2kkwsohi2" class="animable"></path><path d="M620,100.25c.2.2,1.37-.74,3.09-.81s3,.74,3.18.53-.13-.47-.69-.84a4.33,4.33,0,0,0-2.56-.68,4.16,4.16,0,0,0-2.45.91C620.07,99.78,619.91,100.16,620,100.25Z" style="fill: rgb(38, 50, 56); transform-origin: 623.149px 99.3611px;" id="elcltl1fp69p" class="animable"></path><path d="M614.4,113.68a11.24,11.24,0,0,0-2.81-.39c-.44,0-.85-.09-.94-.39a2.22,2.22,0,0,1,.24-1.31c.37-1.07.75-2.2,1.16-3.39,1.6-4.82,2.74-8.77,2.54-8.84s-1.65,3.8-3.25,8.62c-.38,1.19-.75,2.32-1.1,3.4a2.52,2.52,0,0,0-.16,1.73,1.11,1.11,0,0,0,.75.61,2.56,2.56,0,0,0,.75.07A10.63,10.63,0,0,0,614.4,113.68Z" style="fill: rgb(38, 50, 56); transform-origin: 612.304px 106.598px;" id="elu96wb9xz6h" class="animable"></path><path d="M619.23,94.91c.25.43,1.9-.1,3.92-.22s3.72.11,3.91-.35c.08-.22-.28-.6-1-.92a6.49,6.49,0,0,0-3-.47,6.63,6.63,0,0,0-2.93.9C619.42,94.28,619.12,94.71,619.23,94.91Z" style="fill: rgb(38, 50, 56); transform-origin: 623.139px 94.0022px;" id="el5s4y665no9e" class="animable"></path><path d="M602.9,95.51c.36.38,1.75-.06,3.43-.12s3.11.18,3.42-.24c.14-.2-.09-.58-.72-.94a5.46,5.46,0,0,0-2.81-.56,5.36,5.36,0,0,0-2.72.85C602.92,94.92,602.73,95.33,602.9,95.51Z" style="fill: rgb(38, 50, 56); transform-origin: 606.315px 94.6501px;" id="elximjkm3cud" class="animable"></path><path d="M638.49,105.83c.19-.09,7.58-2.59,7.65,5s-7.61,6.13-7.63,5.91S638.49,105.83,638.49,105.83Z" style="fill: rgb(174, 116, 97); transform-origin: 642.315px 111.18px;" id="elsu0ii3vxhao" class="animable"></path><path d="M640.82,113.88s.13.09.36.19a1.28,1.28,0,0,0,1,0c.81-.3,1.47-1.59,1.5-3a4.48,4.48,0,0,0-.39-1.9,1.57,1.57,0,0,0-1-1,.7.7,0,0,0-.79.37c-.1.22-.05.37-.09.38s-.16-.12-.1-.44a.89.89,0,0,1,.29-.48,1,1,0,0,1,.74-.2,1.86,1.86,0,0,1,1.4,1.17,4.54,4.54,0,0,1,.48,2.12c0,1.54-.81,3-1.91,3.32a1.4,1.4,0,0,1-1.22-.19C640.83,114.06,640.79,113.89,640.82,113.88Z" style="fill: rgb(111, 68, 57); transform-origin: 642.516px 111.133px;" id="el8zcd292ddnj" class="animable"></path><path d="M605.54,83.07c-1.23-.69,2.47-4.69,5.51-6.07,4.59-2.09,11.6-3.37,15.83-2.17,5.1,1.44,9.34,4,11.9,8.61a30.12,30.12,0,0,1,3.38,15.34,9.08,9.08,0,0,1-1.08,4.66c-1.06,1.69-3.11,2.76-3,5.09a3.18,3.18,0,0,1-.79,2.33c-1.4,1.49-3.11.09-3.89-1.31-1.68-3-1.87-6.56-2-10a22.07,22.07,0,0,1,.48-7.26c.37-1.28,1-2.48,1.27-3.77a4.63,4.63,0,0,0-.54-3.82,5.1,5.1,0,0,0-.62-.62,8,8,0,0,0-7.9-1.5c-4.31,1.52-11.65,3.8-13.57,2.34-2.76-2.1-3.42-3.47-3.42-3.47Z" style="fill: rgb(38, 50, 56); transform-origin: 623.745px 92.9331px;" id="el5wh3cnsilpu" class="animable"></path><path d="M619.79,114.74c-.27,0-.28,1.74-1.79,3s-3.37,1-3.38,1.28.41.34,1.2.37a4.36,4.36,0,0,0,2.83-1,3.79,3.79,0,0,0,1.38-2.5C620.1,115.17,619.91,114.73,619.79,114.74Z" style="fill: rgb(38, 50, 56); transform-origin: 617.332px 117.065px;" id="eldcyuaupr858" class="animable"></path><path d="M613.89,424.13l.36,20.23s-20.44,7.15-20.74,10.9l39.24.71.74-31.54Z" style="fill: rgb(38, 50, 56); transform-origin: 613.5px 440.05px;" id="el9ehmtjxm78m" class="animable"></path><path d="M626.41,442.88a1.6,1.6,0,0,1,1.08,1.85,1.54,1.54,0,0,1-1.82,1.08,1.69,1.69,0,0,1-1.13-2,1.6,1.6,0,0,1,2-.91" style="fill: rgb(224, 224, 224); transform-origin: 626.009px 444.331px;" id="el1w1a9gibqi7" class="animable"></path><path d="M632.75,456l0-3.18-37.61.51s-1.76.72-1.58,2Z" style="fill: rgb(69, 90, 100); transform-origin: 613.149px 454.41px;" id="elrkorqzde4s" class="animable"></path><path d="M613.61,444.15c0,.19,1,.29,1.9.93s1.42,1.44,1.59,1.37-.08-1.18-1.23-1.93S613.58,444,613.61,444.15Z" style="fill: rgb(255, 255, 255); transform-origin: 615.379px 445.225px;" id="elb763n9wktn" class="animable"></path><path d="M609.47,445.77c-.05.19.77.53,1.41,1.35s.81,1.68,1,1.68.33-1.09-.48-2.09S609.47,445.59,609.47,445.77Z" style="fill: rgb(255, 255, 255); transform-origin: 610.747px 447.25px;" id="el2tpnamexlxu" class="animable"></path><path d="M607,450.66c.17,0,.46-.91,0-2s-1.36-1.49-1.44-1.33.46.73.83,1.6S606.85,450.64,607,450.66Z" style="fill: rgb(255, 255, 255); transform-origin: 606.4px 448.978px;" id="el5tvcnwdxaem" class="animable"></path><path d="M614,439.53c.08.17,1-.08,2.05,0s1.92.45,2,.29-.7-.87-2-1S614,439.37,614,439.53Z" style="fill: rgb(255, 255, 255); transform-origin: 616.028px 439.332px;" id="elclh14su534" class="animable"></path><path d="M661.77,422.89l2.13,24.39L660,467.05a2.51,2.51,0,0,0,2.15,3h0a2.49,2.49,0,0,0,2.15-.79c3.5-3.81,16.3-17.91,16-19.68-.3-2.06-.54-25.87-.54-25.87Z" style="fill: rgb(38, 50, 56); transform-origin: 670.127px 446.48px;" id="els4oceh3w5zj" class="animable"></path><path d="M662.17,470l18.09-22.12.07,1a3.79,3.79,0,0,1-.74,2.5c-1.44,1.92-5.51,7.15-15.19,17.8a2.51,2.51,0,0,1-2.23.79Z" style="fill: rgb(69, 90, 100); transform-origin: 671.254px 458.94px;" id="elkzs25bua4xr" class="animable"></path><g id="ely9ii763tkk8"><g style="opacity: 0.6; transform-origin: 675.61px 441.484px;" class="animable"><path d="M674.74,440.34a1.53,1.53,0,0,0-.29,2,1.46,1.46,0,0,0,2,.31,1.61,1.61,0,0,0,.29-2.13,1.51,1.51,0,0,0-2.1-.08" style="fill: rgb(255, 255, 255); transform-origin: 675.61px 441.484px;" id="eluji4iwtdl2b" class="animable"></path></g></g><path d="M667.06,459a7.42,7.42,0,0,0-2.26-1.77,7.58,7.58,0,0,0-2.85-.35c0-.06.28-.27.84-.39a4,4,0,0,1,4,1.64C667.06,458.6,667.12,459,667.06,459Z" style="fill: rgb(255, 255, 255); transform-origin: 664.516px 457.712px;" id="elt1p33pdkfan" class="animable"></path><path d="M665.53,462.37a19.44,19.44,0,0,0-2.23-.91,21.11,21.11,0,0,0-2.4-.16,2.78,2.78,0,0,1,2.52-.37C664.89,461.26,665.66,462.3,665.53,462.37Z" style="fill: rgb(255, 255, 255); transform-origin: 663.222px 461.575px;" id="elsfvesoi7p2" class="animable"></path><path d="M670,454.59a12.8,12.8,0,0,0-7-2.25,6.85,6.85,0,0,1,7,2.25Z" style="fill: rgb(255, 255, 255); transform-origin: 666.5px 453.354px;" id="el9tch5bmmmm4" class="animable"></path><path d="M670,447.12c-.06.15-1.44-.33-3.2-.28s-3.13.56-3.19.41a6.21,6.21,0,0,1,6.39-.13Z" style="fill: rgb(255, 255, 255); transform-origin: 666.805px 446.788px;" id="eles9w7z76k0i" class="animable"></path><path d="M669.56,440a11.55,11.55,0,0,0-3.32-.38,12.38,12.38,0,0,0-3.19,1s.21-.37.75-.73a5.28,5.28,0,0,1,2.39-.83,5.47,5.47,0,0,1,2.5.34C669.29,439.62,669.6,439.89,669.56,440Z" style="fill: rgb(255, 255, 255); transform-origin: 666.307px 439.827px;" id="elhrzqcy9ccd8" class="animable"></path><path d="M666.2,438.2a2,2,0,0,1-.1-.92,6.45,6.45,0,0,1,.58-2.47,2.88,2.88,0,0,1,1.14-1.44,1,1,0,0,1,1.14.16,1.6,1.6,0,0,1,.46,1.07,3.55,3.55,0,0,1-2.89,3.48,4.13,4.13,0,0,1-4.17-1.89,1.46,1.46,0,0,1-.14-1.18,1,1,0,0,1,1-.59,3.53,3.53,0,0,1,1.66.73,7.27,7.27,0,0,1,1.79,1.79,2.2,2.2,0,0,1,.43.82,11.49,11.49,0,0,0-2.43-2.29,3.21,3.21,0,0,0-1.47-.6.52.52,0,0,0-.54.31,1,1,0,0,0,.14.77,3.66,3.66,0,0,0,3.63,1.6,3.09,3.09,0,0,0,2.5-2.91,1.24,1.24,0,0,0-.29-.77.53.53,0,0,0-.63-.09,2.55,2.55,0,0,0-1,1.2A9.45,9.45,0,0,0,666.2,438.2Z" style="fill: rgb(255, 255, 255); transform-origin: 665.787px 435.73px;" id="elflr8twyenip" class="animable"></path><path d="M594.81,255.21a87,87,0,0,0-1.89,25.56c.42,5.43,18.75,155.72,18.75,155.72h24.75l-7-141.25,2,.44s13.51,60.24,14.61,70c1,8.76,12.39,72.45,12.39,72.45l22.63.26-7.23-84.24-8.41-80.84-3.17-23.53Z" style="fill: rgb(38, 50, 56); transform-origin: 636.866px 344.085px;" id="eleqriq6ro78" class="animable"></path><path d="M633.36,280.83a4.39,4.39,0,0,1-1,.58,11.77,11.77,0,0,1-3.07,1.08,6.44,6.44,0,0,1-2.28,0,4.66,4.66,0,0,1-2.38-1.14,5.76,5.76,0,0,1-1.45-2.53c-.29-1-.45-2-.66-3-.79-4.07-1.32-7.79-1.63-10.5-.16-1.35-.26-2.44-.32-3.2a4.43,4.43,0,0,1,0-1.18,6,6,0,0,1,.23,1.16l.48,3.17c.41,2.69,1,6.39,1.79,10.45.39,2,.67,4.06,1.92,5.26a5.13,5.13,0,0,0,4.28,1.11,14.57,14.57,0,0,0,3-.89A6.21,6.21,0,0,1,633.36,280.83Z" style="fill: rgb(69, 90, 100); transform-origin: 626.945px 271.766px;" id="elj5vfinqraaj" class="animable"></path><path d="M625.91,261.68s.16-.13.51-.15a2.17,2.17,0,0,1,1.39.44,2.48,2.48,0,0,1,1,1.91,2.45,2.45,0,0,1-4.18,1.57,2.5,2.5,0,0,1-.47-2.13,2.18,2.18,0,0,1,.75-1.24c.28-.22.47-.25.48-.22a2.78,2.78,0,0,0-.87,1.53,2.19,2.19,0,0,0,.47,1.74,2,2,0,0,0,3.34-1.25,2.2,2.2,0,0,0-.79-1.62A2.73,2.73,0,0,0,625.91,261.68Z" style="fill: rgb(69, 90, 100); transform-origin: 626.451px 263.849px;" id="el9jczfe5dyyv" class="animable"></path><path d="M606.19,143.79c-4.73.29-13.28,3.13-16.9,9.9-3,5.65-3.85,29.8-4,30.38l9.1,2.36L606,203.62,653.62,193l3,7.51,1.83-53.76S610.91,143.5,606.19,143.79Z" style="fill: rgb(0, 255, 136); transform-origin: 621.87px 173.696px;" id="el4shrx6887lf" class="animable"></path><path d="M661.49,225.07l3.64-51.37-.84-24.37L642,139.52,639.81,131l-23,10.9-4.83-5.34-2,6-5,1.66-11.77,20.09.17,33.63S592,239,593,253.31a4.41,4.41,0,0,0,3,3.88,42.43,42.43,0,0,0,12.61,1.86c23.22.56,54.85-.9,54.85-.9l.32-1a20.24,20.24,0,0,0,.79-8.78Z" style="fill: rgb(0, 255, 136); transform-origin: 628.883px 195.089px;" id="ely8hq30g2igs" class="animable"></path><path d="M613.71,153.28c.33-1.29.59-2.31.77-3.06l.22-.8a1.1,1.1,0,0,1,.09-.26,1,1,0,0,1,0,.28c0,.22-.09.48-.16.81-.16.76-.38,1.79-.65,3.09-.58,2.68-1.45,6.56-2.41,11.37s-2,10.57-2.73,17-.92,13.59-1,21.08c-.15,15,.25,28.55.5,38.37.13,4.86.24,8.82.32,11.62,0,1.33,0,2.39.06,3.17,0,.33,0,.6,0,.82s0,.28,0,.28a1.18,1.18,0,0,1,0-.28c0-.22,0-.49-.06-.82,0-.77-.1-1.83-.18-3.15-.12-2.81-.3-6.76-.51-11.63-.37-9.81-.83-23.38-.68-38.38.09-7.51.35-14.66,1.06-21.14s1.86-12.23,2.87-17" style="fill: rgb(38, 50, 56); transform-origin: 611.03px 203.105px;" id="eljat9aoacc4" class="animable"></path><path d="M639.81,131s-2.58.74-9.2,4.28-13.85,6.62-13.85,6.62l.56,10.4L641.85,140" style="fill: rgb(0, 255, 136); transform-origin: 629.305px 141.65px;" id="el89fo0pslb5i" class="animable"></path><polyline points="611.93 136.56 616.76 141.9 614.18 153.05 609.88 142.97" style="fill: rgb(0, 255, 136); transform-origin: 613.32px 144.805px;" id="elwr6vbsxslqa" class="animable"></polyline><g id="elufqu391vz2i"><g style="opacity: 0.3; transform-origin: 627.415px 148.495px;" class="animable"><path d="M616.67,143.05c-.21.16-1.55,12.87-1.55,12.87l24.59-14.85L617.32,152.3Z" id="elz7833h8j9op" class="animable" style="transform-origin: 627.415px 148.495px;"></path></g></g><path d="M617,141.81s-.47.81-1.25,2.12a58,58,0,0,0-2.79,5.23l-.24.5-.15.33-.15-.33a41.07,41.07,0,0,1-2.06-5.2c-.21-.67-.36-1.23-.46-1.61a2.41,2.41,0,0,1-.11-.6,21.21,21.21,0,0,1,.79,2.14c.48,1.32,1.2,3.15,2.14,5.12h-.31l.24-.51a44.63,44.63,0,0,1,2.89-5.21c.42-.64.78-1.14,1-1.49S617,141.79,617,141.81Z" style="fill: rgb(38, 50, 56); transform-origin: 613.395px 145.899px;" id="eljwyycqwwjs" class="animable"></path><path d="M642,139.52a1.5,1.5,0,0,1-.33.2l-1,.52-3.66,1.9c-3.09,1.6-7.33,3.9-12,6.4-2.86,1.52-5.56,2.94-7.92,4.11l-.22.11v-.24c0-3.05,0-5.63-.07-7.49v-2.11a4.09,4.09,0,0,1,0-.75,7.51,7.51,0,0,1,.06.75c0,.53,0,1.24.08,2.11,0,1.86.11,4.43.19,7.49l-.22-.14c2.35-1.2,5-2.62,7.9-4.14,4.69-2.51,8.95-4.76,12.07-6.32,1.56-.78,2.83-1.39,3.71-1.8l1-.46C641.89,139.55,642,139.5,642,139.52Z" style="fill: rgb(38, 50, 56); transform-origin: 629.391px 146.138px;" id="el3y41ew61lvr" class="animable"></path><path d="M613.69,143.7a30,30,0,0,1-.32-7.08s1.61-4.59,1.37-5.39-.64-1.69-2.25-.89-3.63,2.26-3.87,4.91a14.09,14.09,0,0,1-.64,3.62l-1.53-2.33.32-2.41s2.27-.58,2.35-1.79a25.71,25.71,0,0,0-2.3-1.64s-4.07.21-4.48,1.73-1.45,4.83-1.45,4.83-3.38.57-3.78,3.31c0,0-1.93,2.57-1.85,4.18a7.59,7.59,0,0,0-1,3.38c.08,1.53,4.51,8,4.51,8l1.35,10.1L612.59,162l-.83-9.19S614.34,147,613.69,143.7Z" style="fill: rgb(174, 116, 97); transform-origin: 604.512px 148.128px;" id="el1zeq3sgbm8j" class="animable"></path><path d="M613.69,143.64a2.66,2.66,0,0,1,.12.63,8.26,8.26,0,0,1,0,1.84,25.32,25.32,0,0,1-1.89,6.69v-.07c.25,2.57.55,5.68.88,9.18v.17l-.16,0-12.54,3.31-.26.07,0-.27c-.39-2.9-.8-6-1.24-9.16l0,.11c-1.13-1.67-2.28-3.42-3.34-5.28-.26-.47-.52-.94-.75-1.44a3.73,3.73,0,0,1-.47-1.66,8,8,0,0,1,1-3.24l0,.14a4.52,4.52,0,0,1,.42-1.81,13.61,13.61,0,0,1,1.48-2.54l0,.12a3.77,3.77,0,0,1,1.47-2.41,6.37,6.37,0,0,1,2.53-1.11l-.2.18q.75-2.5,1.49-4.92a2,2,0,0,1,1-1,5.5,5.5,0,0,1,1.21-.44,13.09,13.09,0,0,1,2.46-.38h.08l.07.05,1.26.85.62.44.31.24.09.07s0,0,.06.07a.39.39,0,0,1,.06.19l0,.23a2.19,2.19,0,0,1-1.09,1.2,6,6,0,0,1-1.4.56l.17-.19c-.11.82-.22,1.62-.33,2.41l0-.15,1.52,2.33-.38,0a15.26,15.26,0,0,0,.55-2.77,7.13,7.13,0,0,1,.64-2.73,7.5,7.5,0,0,1,3.88-3.3,1.6,1.6,0,0,1,1.27,0,1.64,1.64,0,0,1,.71,1,1.29,1.29,0,0,1,.09.59,4.58,4.58,0,0,1-.07.55c-.07.36-.15.69-.24,1-.35,1.32-.75,2.49-1.12,3.53v0a32.18,32.18,0,0,0,0,5.26q.07.9.15,1.35a2.3,2.3,0,0,1,0,.46,2.13,2.13,0,0,1-.11-.45c-.06-.3-.14-.75-.21-1.35a29.87,29.87,0,0,1-.12-5.29h0v0c.35-1.05.73-2.22,1.06-3.52.09-.33.16-.66.22-1a3.07,3.07,0,0,0,.06-.51.86.86,0,0,0-.07-.47,1.37,1.37,0,0,0-.56-.8,1.27,1.27,0,0,0-1,.05,7.18,7.18,0,0,0-3.64,3.14,6.61,6.61,0,0,0-.58,2.6,14.9,14.9,0,0,1-.57,2.89l-.14.41-.25-.38c-.5-.75-1-1.53-1.53-2.33l0-.07v-.08c.11-.79.21-1.59.32-2.42l0-.15.15,0a5.93,5.93,0,0,0,1.28-.52,1.75,1.75,0,0,0,.86-.91l0-.14h0l.23,0h0a.14.14,0,0,0-.09,0s-.14.09-.1.1h0l-.06,0-.28-.22-.61-.43-1.26-.84.15,0a12.73,12.73,0,0,0-2.36.37c-.74.2-1.62.51-1.87,1.12l-1.47,4.9,0,.14-.16,0a5.65,5.65,0,0,0-2.3,1,3.21,3.21,0,0,0-1.27,2.07v.07l0,0a13.09,13.09,0,0,0-1.42,2.43,4,4,0,0,0-.38,1.59v.07l0,.07a7.29,7.29,0,0,0-.93,3,3.37,3.37,0,0,0,.41,1.43c.23.48.48.95.74,1.41,1,1.84,2.18,3.58,3.31,5.25l0,0V156c.42,3.19.83,6.26,1.21,9.16L600,165l12.57-3.23-.15.21c-.29-3.51-.56-6.62-.77-9.2v0l0,0a26.42,26.42,0,0,0,2-6.59A10.17,10.17,0,0,0,613.69,143.64Z" style="fill: rgb(111, 68, 57); transform-origin: 604.562px 147.589px;" id="elc4w0gsx3k4a" class="animable"></path><path d="M610.65,143.34a8.68,8.68,0,0,1-1.73-2.43,9,9,0,0,1-1.27-2.69,8.62,8.62,0,0,1,1.72,2.43A9.05,9.05,0,0,1,610.65,143.34Z" style="fill: rgb(111, 68, 57); transform-origin: 609.15px 140.78px;" id="eli9o2i3v05kf" class="animable"></path><g id="el34wy7b1lfqy"><g style="opacity: 0.3; transform-origin: 640.49px 200.34px;" class="animable"><path d="M620.86,216.09a40.7,40.7,0,0,0,39.26-31.5Z" id="el3cj7orharwa" class="animable" style="transform-origin: 640.49px 200.34px;"></path></g></g><path d="M613,161.51l11.45,31.12,24.27-36.31s11.62-13,17.09-5.35,2.68,22.25-.78,29.16c-3.22,6.43-33,44.49-38.5,45.1s-13.7-1.5-17.34-8.38-16-48.83-16-48.83Z" style="fill: rgb(0, 255, 136); transform-origin: 631.043px 186.944px;" id="el7n11nt5zmz" class="animable"></path><path d="M662.6,149.44a24.15,24.15,0,0,0-5.64,1,23.46,23.46,0,0,0-5,2.76,11.61,11.61,0,0,1,10.66-3.73Z" style="fill: rgb(38, 50, 56); transform-origin: 657.29px 151.25px;" id="el9ijzlkwflq" class="animable"></path><path d="M665.45,179.4c-3.12,6.43-31.93,44.49-37.22,45.1S615,223,611.47,216.12s-15.69-49.57-15.69-49.57l19.37-5.76,11.07,31.11,23.46-36.31" style="fill: rgb(0, 255, 136); transform-origin: 630.615px 190.095px;" id="elriv4x1em80e" class="animable"></path><path d="M649.68,155.59s-.12.23-.39.67l-1.21,1.92-4.66,7.31c-4.06,6.34-9.9,15.43-17,26.53l-.23.34L626,192c-3.27-9.16-7-19.69-11.11-31.1l.3.15-19.37,5.77.18-.31c1.54,5.27,3.15,10.8,4.8,16.43,2.23,7.52,4.46,14.84,6.75,21.87,1.17,3.5,2.28,7,3.66,10.22a14.42,14.42,0,0,0,6.87,7.35,18.3,18.3,0,0,0,9.48,2l.6,0,.51-.15a7.1,7.1,0,0,0,1-.58,10.28,10.28,0,0,0,.93-.7,10.8,10.8,0,0,0,.89-.76c1.16-1,2.24-2.11,3.29-3.2,4.15-4.38,7.73-8.72,11-12.7,6.45-8,11.41-14.68,14.75-19.35,1.66-2.34,2.91-4.19,3.73-5.47.41-.63.7-1.13.89-1.46s.3-.51.3-.51-.08.18-.25.53-.46.85-.86,1.5c-.78,1.29-2,3.16-3.65,5.52-3.28,4.72-8.21,11.43-14.63,19.47-3.23,4-6.8,8.36-10.95,12.77-1.05,1.09-2.13,2.19-3.3,3.24-.29.27-.59.52-.91.77a8.58,8.58,0,0,1-1,.72,6.9,6.9,0,0,1-1.06.63l-.64.18-.61.05a18.85,18.85,0,0,1-9.74-2,14.91,14.91,0,0,1-7.1-7.57c-1.41-3.3-2.52-6.76-3.7-10.27-2.29-7-4.53-14.36-6.76-21.88-1.67-5.62-3.29-11.16-4.8-16.44l-.07-.25.25-.07,19.37-5.75.22-.06.08.21,11,31.14-.37-.05,17.18-26.42,4.75-7.26,1.26-1.88C649.52,155.8,649.68,155.59,649.68,155.59Z" style="fill: rgb(38, 50, 56); transform-origin: 630.435px 190.255px;" id="el0070zh3ktc33g" class="animable"></path><g id="elngfceftd24h"><g style="opacity: 0.3; transform-origin: 619.528px 224.288px;" class="animable"><path d="M645.78,219a3,3,0,0,0-2-.72,258.72,258.72,0,0,0-38.07-.58l-12.89,9.85a1,1,0,0,0,.45,1.16,2.75,2.75,0,0,0,1.3.32l10,.88a78.42,78.42,0,0,0,9.31.44c1.94-.07,3.87-.28,5.81-.27a93.51,93.51,0,0,1,9.59,1,25.34,25.34,0,0,0,7.63-.11,12.12,12.12,0,0,0,6.66-3.51,10.74,10.74,0,0,0,2.66-6.38A2.67,2.67,0,0,0,645.78,219Z" id="elwkctx1cqrvf" class="animable" style="transform-origin: 619.528px 224.288px;"></path></g></g><path d="M646,217.74c-.41-.2-5.7-2.36-5.7-2.36L633.46,214l6.54-.26,5.71,1.59s2.28.26,1.77-1.66-7.47-4-7.47-4l-8.88-.61s6.86-1,7.57-3.12a3.28,3.28,0,0,0-.51-3.33,54.78,54.78,0,0,1-7.17,2.32,45.34,45.34,0,0,0-8.88,2.82,61.31,61.31,0,0,0-5.92,2.73l-3.77,13.12s6.26,3.94,13.32,3.74,13.33,2.08,14.24,1.44,1-1.74,0-2.25a33.81,33.81,0,0,0-5.29-1.11L631,223.9s12.62,1.11,13.63.6,2-1.21,1.62-2.32a1.6,1.6,0,0,0-1.42-1.11s2.73.1,2.63-1A3.47,3.47,0,0,0,646,217.74Z" style="fill: rgb(174, 116, 97); transform-origin: 630.002px 215.752px;" id="elyykcfbi1lmj" class="animable"></path><path d="M631.35,219.08a15.1,15.1,0,0,0,2.12.16c1.31.08,3.11.23,5.08.53s3.74.69,5,1a17.42,17.42,0,0,0,2.07.48,8.89,8.89,0,0,0-2-.74,37,37,0,0,0-5-1.11,37.57,37.57,0,0,0-5.13-.43A9.35,9.35,0,0,0,631.35,219.08Z" style="fill: rgb(111, 68, 57); transform-origin: 638.485px 220.101px;" id="elf7svmlxhdxa" class="animable"></path><path d="M594,205.56l-1.63-34.72L588.73,155l-12.9,35.55-4.35,15.93c-3.22,15.08,9.22,20.8,14.51,20.61l27.63,1,2.6-17.63Z" style="fill: rgb(0, 255, 136); transform-origin: 593.588px 191.545px;" id="elkhjlw6m2468" class="animable"></path><path d="M593.59,205,592,169.87" style="fill: rgb(0, 255, 136); transform-origin: 592.795px 187.435px;" id="elgtxa7ds9jyb" class="animable"></path><path d="M592,169.87c.14,0,.61,7.85,1,17.56s.66,17.57.52,17.58-.61-7.85-1-17.56S591.88,169.87,592,169.87Z" style="fill: rgb(38, 50, 56); transform-origin: 592.764px 187.44px;" id="eln3lotu1z0rs" class="animable"></path><path d="M584.57,227a3.42,3.42,0,0,1,.56,0l1.61,0,6,.16,20.86.69-.26.22c.53-3.87,1.1-8.07,1.69-12.42.27-1.92.53-3.81.77-5.6l.2.29c-5-1.14-9.63-2.17-13.86-3.06-2.12-.44-4.12-.85-6-1.2a25.61,25.61,0,0,0-5.22-.56,13.22,13.22,0,0,0-7.18,1.87,10,10,0,0,0-2,1.8,4.09,4.09,0,0,1,.42-.58,7.88,7.88,0,0,1,1.53-1.38,13.23,13.23,0,0,1,7.28-2.06,25.94,25.94,0,0,1,5.29.51c1.88.33,3.89.72,6,1.15,4.24.86,8.92,1.88,13.88,3l.24,0,0,.24c-.24,1.79-.5,3.68-.76,5.6-.6,4.35-1.18,8.55-1.71,12.41l0,.23h-.23l-20.85-.88-6-.31-1.6-.1A2.73,2.73,0,0,1,584.57,227Z" style="fill: rgb(38, 50, 56); transform-origin: 599.06px 216.739px;" id="el1v328ff3ea1" class="animable"></path><path d="M626.28,191.57a29.82,29.82,0,0,1,3.29,11.9" style="fill: rgb(0, 255, 136); transform-origin: 627.925px 197.52px;" id="el9ebbiagfuyd" class="animable"></path><path d="M629.57,203.47c-.16,0-.36-2.77-1.28-6.05s-2.15-5.78-2-5.85a16.84,16.84,0,0,1,2.52,5.71A17.26,17.26,0,0,1,629.57,203.47Z" style="fill: rgb(38, 50, 56); transform-origin: 627.939px 197.52px;" id="elpvgxr17znu7" class="animable"></path><g id="el6yjls4tvdar"><g style="opacity: 0.3; transform-origin: 585.995px 206.132px;" class="animable"><path d="M593.31,205a30.47,30.47,0,0,0-6.51-1.45,10.83,10.83,0,0,0-6.43,1.31,3.71,3.71,0,0,0-1.51,1.53,1.77,1.77,0,0,0,.31,2,1.9,1.9,0,0,0,1.85.25,7.47,7.47,0,0,0,1.7-1,14.3,14.3,0,0,1,10-2.08" id="el8yjb06myf9c" class="animable" style="transform-origin: 585.995px 206.132px;"></path></g></g></g><g id="freepik--character-1--inject-296" class="animable" style="transform-origin: 132.262px 282.607px;"><path d="M102.21,98.2c-1.37-3-5.39-4-8.57-3.11a10.69,10.69,0,0,0-6.59,5.63c-1.35,2.88-1.34,6.18-1.41,9.36-.24,10.6-1.75,21.14-2.33,31.73s-.19,21.42,3.22,31.46l19-1.42,7.08-3.22Z" style="fill: rgb(38, 50, 56); transform-origin: 97.8492px 134.024px;" id="elzb66wepddl" class="animable"></path><path d="M140.68,102.63a13.12,13.12,0,0,0-4.61-4.34c-3-1.58-5.63-3.79-8.66-5.32a23.24,23.24,0,0,0-23.72,2.21,25.7,25.7,0,0,0-10,21.87,28.73,28.73,0,0,0,11.85,21.17l32.73-8c2-5.54,2.94-10.86,3.59-17.58C142.09,110.29,141.73,104.16,140.68,102.63Z" style="fill: rgb(38, 50, 56); transform-origin: 117.787px 114.462px;" id="eldyhv8son09i" class="animable"></path><path d="M101.58,114.1a12.13,12.13,0,0,1,9.14-11.18l16.37-4.18c7.08-.77,11.81,7.94,12.27,15.05.52,7.89.83,16.22-.09,22.11-1.85,11.85-10.93,13.37-10.93,13.37v9.1l.16,15-23.31-16.76-3.65-42.41C101.53,114,101.56,114.37,101.58,114.1Z" style="fill: rgb(255, 191, 157); transform-origin: 120.698px 136.031px;" id="ely1ha79wyqej" class="animable"></path><path d="M136.72,123a1.52,1.52,0,0,1-1.47,1.53,1.44,1.44,0,0,1-1.56-1.36,1.52,1.52,0,0,1,1.46-1.54A1.46,1.46,0,0,1,136.72,123Z" style="fill: rgb(38, 50, 56); transform-origin: 135.205px 123.08px;" id="eled5nxq8w9no" class="animable"></path><path d="M137.34,118.66c-.19.2-1.34-.65-3-.64s-2.83.83-3,.63.11-.45.63-.83a4.18,4.18,0,0,1,2.41-.75,4,4,0,0,1,2.36.76C137.26,118.21,137.43,118.57,137.34,118.66Z" style="fill: rgb(38, 50, 56); transform-origin: 134.327px 117.88px;" id="elq3fa7w3bjap" class="animable"></path><path d="M122.21,123.31a1.52,1.52,0,0,1-1.46,1.54,1.47,1.47,0,0,1-1.57-1.37,1.53,1.53,0,0,1,1.46-1.54A1.46,1.46,0,0,1,122.21,123.31Z" style="fill: rgb(38, 50, 56); transform-origin: 120.695px 123.395px;" id="ell3tjpj0863b" class="animable"></path><path d="M122.14,119c-.19.19-1.35-.65-3-.65s-2.83.83-3,.63.1-.44.63-.83a4.1,4.1,0,0,1,2.4-.74,3.92,3.92,0,0,1,2.37.76C122.05,118.52,122.23,118.88,122.14,119Z" style="fill: rgb(38, 50, 56); transform-origin: 119.126px 118.219px;" id="el3qy7i2rkur3" class="animable"></path><path d="M127.17,131.26a10.9,10.9,0,0,1,2.65-.48c.42-.05.82-.13.89-.42a2.13,2.13,0,0,0-.29-1.23c-.39-1-.8-2.07-1.24-3.18-1.72-4.52-3-8.24-2.79-8.3s1.73,3.54,3.46,8.06L131,128.9a2.43,2.43,0,0,1,.23,1.64,1.06,1.06,0,0,1-.69.61,2.81,2.81,0,0,1-.71.1A10.42,10.42,0,0,1,127.17,131.26Z" style="fill: rgb(38, 50, 56); transform-origin: 128.825px 124.495px;" id="eleufwdybpvwe" class="animable"></path><path d="M112.63,145.06s3.86,8.13,15.71,7v-2.79A29.79,29.79,0,0,1,112.63,145.06Z" style="fill: rgb(255, 154, 108); transform-origin: 120.485px 148.614px;" id="elvgg5o0xecfi" class="animable"></path><path d="M121.55,112.52c-.16.44-1.79.24-3.71.47s-3.47.76-3.72.37c-.12-.19.15-.61.78-1a6,6,0,0,1,2.75-1,6.38,6.38,0,0,1,2.91.34C121.26,112,121.62,112.31,121.55,112.52Z" style="fill: rgb(38, 50, 56); transform-origin: 117.825px 112.408px;" id="el0fhj6ggnrnt" class="animable"></path><path d="M135.62,112.75c-.29.37-1.42,0-2.77,0s-2.5.26-2.76-.13c-.12-.19.06-.56.56-.91a3.88,3.88,0,0,1,2.25-.62,3.84,3.84,0,0,1,2.21.75C135.59,112.19,135.74,112.57,135.62,112.75Z" style="fill: rgb(38, 50, 56); transform-origin: 132.857px 112.001px;" id="elxx9e6qtdroh" class="animable"></path><path d="M103.2,122.68c-.12-.34-6.3-2.57-6.38,4-.08,6.38,6.35,5.12,6.37,4.94S103.2,122.68,103.2,122.68Z" style="fill: rgb(255, 191, 157); transform-origin: 100.011px 126.941px;" id="elptrgpqwud89" class="animable"></path><path d="M101.24,129.19s-.11.07-.3.16a1.16,1.16,0,0,1-.83,0,2.76,2.76,0,0,1-1.25-2.48,3.71,3.71,0,0,1,.33-1.59,1.27,1.27,0,0,1,.84-.85.56.56,0,0,1,.65.31c.09.18,0,.31.08.32s.14-.1.09-.37a.74.74,0,0,0-.25-.4.84.84,0,0,0-.61-.17,1.55,1.55,0,0,0-1.17,1,3.65,3.65,0,0,0-.4,1.78,2.88,2.88,0,0,0,1.59,2.77,1.23,1.23,0,0,0,1-.16C101.23,129.34,101.26,129.2,101.24,129.19Z" style="fill: rgb(255, 154, 108); transform-origin: 99.8294px 126.914px;" id="elpa80afewo7o" class="animable"></path><path d="M100.52,130.31a1.29,1.29,0,1,0,.29.1" style="fill: rgb(255, 255, 255); transform-origin: 100.247px 131.571px;" id="elnp6hupohiti" class="animable"></path><path d="M100.81,130.41a1.68,1.68,0,0,1,.58.86,1.1,1.1,0,0,1-.25,1,1.22,1.22,0,0,1-1.19.34,1.16,1.16,0,0,1-.77-1,1.1,1.1,0,0,1,.37-1,1.79,1.79,0,0,1,1-.37.55.55,0,0,0-.3-.07,1.35,1.35,0,0,0-.8.28,1.27,1.27,0,0,0-.51,1.15,1.37,1.37,0,0,0,2.43.78,1.31,1.31,0,0,0,.25-1.24,1.39,1.39,0,0,0-.49-.69C100.93,130.41,100.82,130.39,100.81,130.41Z" style="fill: rgb(38, 50, 56); transform-origin: 100.307px 131.527px;" id="elmesbem8cnr" class="animable"></path><path d="M130.17,97.84a2.62,2.62,0,0,0-2.13-1,33.86,33.86,0,0,0-30,12.94l1.82,11c-.77,1.38,2.85,4.13,4.42,4a4.25,4.25,0,0,0,3.36-2.95c1.09-2.88.47-6.56,2.72-8.67,1.26-1.18,3.09-1.48,4.79-1.85a24.54,24.54,0,0,0,9.08-3.84,15.86,15.86,0,0,0,5.93-7.75A2.41,2.41,0,0,0,130.17,97.84Z" style="fill: rgb(38, 50, 56); transform-origin: 114.198px 110.734px;" id="eliqx0a8xaqd" class="animable"></path><path d="M96.38,126.16a5,5,0,0,1-.62-1.15,21.47,21.47,0,0,1-1.21-3.37,24.72,24.72,0,0,1,4.82-22.31,22.36,22.36,0,0,1,2.49-2.57,6,6,0,0,1,1-.8c.07.08-1.4,1.24-3.24,3.6a25.61,25.61,0,0,0-4.75,22C95.61,124.45,96.47,126.12,96.38,126.16Z" style="fill: rgb(69, 90, 100); transform-origin: 98.2679px 111.06px;" id="eljk9bjqyhaf" class="animable"></path><path d="M126.38,93.34c0-.06.45,0,1.06.38a5.42,5.42,0,0,1,1.9,2,5.36,5.36,0,0,1,.73,2.63c0,.7-.16,1.12-.22,1.11a9.54,9.54,0,0,0-1-3.48A10,10,0,0,0,126.38,93.34Z" style="fill: rgb(69, 90, 100); transform-origin: 128.225px 96.39px;" id="elfgg9zi7zp3i" class="animable"></path><path d="M125.87,134.31l-.09-.21L122.52,133a1.82,1.82,0,0,0-.92-.13,1.32,1.32,0,0,0-.77.6,2.52,2.52,0,0,0,.35,3.08,2.91,2.91,0,0,0,3.23.5A2.66,2.66,0,0,0,125.87,134.31Z" style="fill: rgb(255, 154, 108); transform-origin: 123.176px 135.094px;" id="elpkmj50fpvth" class="animable"></path><polygon points="104.07 419.65 107.82 452.03 122.01 449.87 122.97 417.96 104.07 419.65" style="fill: rgb(255, 191, 157); transform-origin: 113.52px 434.995px;" id="el6rmg3casiib" class="animable"></polygon><path d="M122.06,443.45s-9.52,8.08-14.83,2.14l-1,3.16L102,471a2.94,2.94,0,0,0,1.85,3.38,2.73,2.73,0,0,0,2.88-.8c3.85-4.35,17.92-20.39,17.63-22.4l-.44-5.35a2.7,2.7,0,0,0-1.87-2.37Z" style="fill: rgb(69, 90, 100); transform-origin: 113.149px 458.979px;" id="elc1v2r3zblkf" class="animable"></path><g id="el5cetb0vgrra"><g style="opacity: 0.6; transform-origin: 114.359px 461.905px;" class="animable"><path d="M104.37,474.47l19.87-25.16.08,1.17a3.32,3.32,0,0,1-.84,2.66c-1.57,2.54-6,8.29-16.66,20.42a2.7,2.7,0,0,1-2.45.91Z" style="fill: rgb(255, 255, 255); transform-origin: 114.359px 461.905px;" id="el4c62d0deqjy" class="animable"></path></g></g><g id="el5myavi2fnhl"><g style="opacity: 0.6; transform-origin: 121.8px 447.351px;" class="animable"><path d="M120.84,446.07a1.76,1.76,0,0,0-.31,2.27,1.59,1.59,0,0,0,2.2.32,1.84,1.84,0,0,0,.31-2.4,1.64,1.64,0,0,0-2.32-.08" style="fill: rgb(255, 255, 255); transform-origin: 121.8px 447.351px;" id="elc0qcewvot5n" class="animable"></path></g></g><path d="M109.72,462a8.38,8.38,0,0,0-2.5-2,8.33,8.33,0,0,0-3.15-.38c0-.07.3-.3.93-.44a4.17,4.17,0,0,1,2.44.26,4.29,4.29,0,0,1,1.93,1.56C109.72,461.53,109.79,461.93,109.72,462Z" style="fill: rgb(38, 50, 56); transform-origin: 106.907px 460.551px;" id="el6cvrtrq0ff8" class="animable"></path><path d="M108.05,465.8a21.55,21.55,0,0,0-2.47-1,19.45,19.45,0,0,0-2.65-.15c-.09-.14,1.17-.82,2.78-.44S108.19,465.71,108.05,465.8Z" style="fill: rgb(38, 50, 56); transform-origin: 105.495px 464.948px;" id="el3eyienomz3g" class="animable"></path><path d="M113,457c-.11.14-1.53-1.15-3.7-1.82s-4-.48-4.06-.66a6,6,0,0,1,4.24.08C111.78,455.29,113.11,456.87,113,457Z" style="fill: rgb(38, 50, 56); transform-origin: 109.123px 455.591px;" id="elf6ehkdc6y99" class="animable"></path><path d="M113,450.29c-.06.17-1.59-.36-3.53-.29s-3.45.67-3.52.5a5.28,5.28,0,0,1,3.5-1.1C111.53,449.33,113.07,450.15,113,450.29Z" style="fill: rgb(38, 50, 56); transform-origin: 109.476px 449.962px;" id="ell3q9apjvygs" class="animable"></path><path d="M108.35,450a2.2,2.2,0,0,1,.08-1,7.36,7.36,0,0,1,1.11-2.64,3.16,3.16,0,0,1,1.51-1.38,1.1,1.1,0,0,1,1.22.39,1.92,1.92,0,0,1,.28,1.29,4,4,0,0,1-3.81,3.31,4.53,4.53,0,0,1-4.17-2.92,1.66,1.66,0,0,1,.08-1.34,1.07,1.07,0,0,1,1.2-.46,3.86,3.86,0,0,1,1.66,1.14,8.17,8.17,0,0,1,1.6,2.34,2.68,2.68,0,0,1,.31,1,13,13,0,0,0-2.2-3,3.65,3.65,0,0,0-1.47-1,.59.59,0,0,0-.66.25,1.13,1.13,0,0,0,0,.89,4,4,0,0,0,3.64,2.48,3.44,3.44,0,0,0,3.28-2.76,1.4,1.4,0,0,0-.16-.91.6.6,0,0,0-.67-.22,2.81,2.81,0,0,0-1.3,1.14A10.61,10.61,0,0,0,108.35,450Z" style="fill: rgb(38, 50, 56); transform-origin: 108.517px 447.463px;" id="el3yzu73akakj" class="animable"></path><path d="M160.29,445.16c-.33-.5-3.3-11.33-3.3-11.33l18.37-5,2.6,15.61Z" style="fill: rgb(255, 191, 157); transform-origin: 167.475px 436.995px;" id="elqbjuwg81rhc" class="animable"></path><path d="M177.8,441.37l0,1.25s20.22,8.24,20.48,12.24l-40,.3.46-14C164.75,444,171,444.31,177.8,441.37Z" style="fill: rgb(69, 90, 100); transform-origin: 178.28px 448.16px;" id="elouett0ath9l" class="animable"></path><g id="elnuxruzv3dc"><g style="opacity: 0.6; transform-origin: 163.263px 447.226px;" class="animable"><path d="M162.87,445.62a1.71,1.71,0,0,0-1.11,2,1.56,1.56,0,0,0,1.84,1.18,1.82,1.82,0,0,0,1.17-2.09,1.61,1.61,0,0,0-2.05-1" style="fill: rgb(255, 255, 255); transform-origin: 163.263px 447.226px;" id="elvoq3f9eoive" class="animable"></path></g></g><g id="elui9z3fk4w5n"><g style="opacity: 0.6; transform-origin: 178.327px 453.475px;" class="animable"><path d="M158.34,455.16l.11-3.37,38.25,1s1.79.8,1.6,2.11Z" style="fill: rgb(255, 255, 255); transform-origin: 178.327px 453.475px;" id="elae4k5qf7jej" class="animable"></path></g></g><path d="M178,442.74c0,.2-1,.3-1.94,1s-1.46,1.53-1.64,1.45.11-1.27,1.28-2.05S178,442.55,178,442.74Z" style="fill: rgb(38, 50, 56); transform-origin: 176.185px 443.884px;" id="eld45x4w0xsr9" class="animable"></path><path d="M182.16,444.53c.05.19-.79.55-1.45,1.42s-.84,1.79-1,1.78-.32-1.16.51-2.23S182.16,444.33,182.16,444.53Z" style="fill: rgb(38, 50, 56); transform-origin: 180.872px 446.088px;" id="elmdks1l3b3b" class="animable"></path><path d="M184.58,449.78c-.18,0-.46-1,0-2.1s1.4-1.58,1.48-1.41-.47.77-.87,1.7S184.77,449.76,184.58,449.78Z" style="fill: rgb(38, 50, 56); transform-origin: 185.199px 448.008px;" id="elmphtmsnl56" class="animable"></path><path d="M147.84,249.36s10.14,45.45,18.71,97.86c7,43.11,10.17,89.78,10.17,89.78L156,438.21s-12.64-53.45-22.49-91.89c-9.09-35.44-16.47-54-16.47-54l-4.16-46.78Z" style="fill: rgb(38, 50, 56); transform-origin: 144.8px 341.875px;" id="elcnsiq0roi6" class="animable"></path><path d="M90.57,240.31s-18.2,24.61-16.67,50.3C74.81,306,104.07,437,104.07,437h21.51l-7.1-140.15,6.24-47.49Z" style="fill: rgb(38, 50, 56); transform-origin: 99.6943px 338.655px;" id="elyfk6ih10ww" class="animable"></path><path d="M146.45,174.08a4.21,4.21,0,0,1,.1.76c0,.56.09,1.29.16,2.19.15,1.91.25,4.67.31,8.09.13,6.84-.19,16.28-.87,26.68s-1.27,19.81-1.4,26.63c-.08,3.41-.11,6.17-.08,8.08v2.2a4.23,4.23,0,0,1,0,.77,3.51,3.51,0,0,1-.08-.76c0-.57-.07-1.3-.11-2.2-.1-1.91-.14-4.68-.11-8.09,0-6.84.54-16.27,1.22-26.67s1.07-19.81,1-26.64c0-3.41,0-6.17-.12-8.08,0-.9,0-1.63,0-2.19A3.46,3.46,0,0,1,146.45,174.08Z" style="fill: rgb(38, 50, 56); transform-origin: 145.704px 211.78px;" id="elcoxiasimnec" class="animable"></path><path d="M207.45,175.42l-11.1,4.07-12.13,16.42,3.31,5.74,3.28-3.08s12.48-2.32,13.38-4.1a3.44,3.44,0,0,0-.13-3.3,7.66,7.66,0,0,0,.1-3.46,2.25,2.25,0,0,0-1.57-1.73,1.72,1.72,0,0,0,.79-2.31,3,3,0,0,0-1.8-2.08s7.44-3.54,8.1-4.54a.81.81,0,0,0-.07-1A1.85,1.85,0,0,0,207.45,175.42Z" style="fill: rgb(255, 191, 157); transform-origin: 197.02px 188.472px;" id="elsh6gt8v2x5q" class="animable"></path><path d="M182.31,192.48l2.25-3.14,4.84-8.78,10.79-2.91s1.82.85-.69,4.07a6.52,6.52,0,0,1-6,2.56s.77,7-1.14,10.13-7.05,3.4-7.05,3.4Z" style="fill: rgb(255, 191, 157); transform-origin: 191.569px 187.73px;" id="eliafpvbs6n3c" class="animable"></path><path d="M192.46,194.91a2.82,2.82,0,0,0,.47-.69,11.13,11.13,0,0,0,.89-2.14,12.1,12.1,0,0,0-.3-7.65l-.17.31.38-.06a13,13,0,0,0,4.08-1.19,5.47,5.47,0,0,0,2.46-2.55,4.07,4.07,0,0,0,.34-2.42,1.72,1.72,0,0,0-.33-.83s.1.31.16.86a4.1,4.1,0,0,1-.45,2.24,5.19,5.19,0,0,1-2.36,2.32,13.36,13.36,0,0,1-4,1.11l-.38.07-.28,0,.11.27a12.28,12.28,0,0,1,.41,7.39A23.61,23.61,0,0,1,192.46,194.91Z" style="fill: rgb(255, 154, 108); transform-origin: 196.563px 186.3px;" id="elzyraq7oofk" class="animable"></path><path d="M202.3,186.33a9.25,9.25,0,0,0-1.11.4c-.7.26-1.74.6-3,1.09a10.42,10.42,0,0,0-2,1,2.24,2.24,0,0,0-.9,1,1.72,1.72,0,0,0,.21,1.48,2.69,2.69,0,0,0,1.14,1,2.45,2.45,0,0,0,1.51.09l.72-.13a4.55,4.55,0,0,0,.75-.17c.49-.14,1-.32,1.46-.51l1.28-.51-.14-.43a11.5,11.5,0,0,0-2.46,1.4l-1.08.74a11.65,11.65,0,0,0-1.07.71,1.61,1.61,0,0,0-.61,1.21,1.07,1.07,0,0,0,.23.67,1.29,1.29,0,0,0,.51.37,4.66,4.66,0,0,0,2,.28,9.34,9.34,0,0,0,2.79-.75,4,4,0,0,0,1-.46,5.72,5.72,0,0,0-1,.3,10.4,10.4,0,0,1-2.76.59,4.32,4.32,0,0,1-1.87-.3.75.75,0,0,1-.51-.7,1.24,1.24,0,0,1,.49-.89,11.55,11.55,0,0,1,1-.66l1.1-.74a11.26,11.26,0,0,1,2.37-1.33l-.14-.44-1.3.51c-.47.18-1,.36-1.42.5a4.56,4.56,0,0,1-.69.16l-.73.13a2,2,0,0,1-1.28,0,2.14,2.14,0,0,1-1-.8,1.21,1.21,0,0,1-.18-1.09,1.85,1.85,0,0,1,.73-.84,10.62,10.62,0,0,1,1.93-1c1.24-.52,2.26-.91,2.95-1.22A4,4,0,0,0,202.3,186.33Z" style="fill: rgb(255, 154, 108); transform-origin: 199.369px 191.182px;" id="els9umrgjtejd" class="animable"></path><path d="M201.46,181.68a7.52,7.52,0,0,0-2.29.8,18.06,18.06,0,0,0-2.31,1.32c-.42.29-.84.6-1.27.95a2.32,2.32,0,0,0-1,1.51,1.25,1.25,0,0,0,.39,1,1.74,1.74,0,0,0,.84.41,5.67,5.67,0,0,0,1.6,0,20.34,20.34,0,0,0,2.58-.56,6.88,6.88,0,0,0,2.25-.91c0-.05-.88.27-2.33.59a24.48,24.48,0,0,1-2.55.45,5.17,5.17,0,0,1-1.47,0,1,1,0,0,1-.87-.9,2.07,2.07,0,0,1,.87-1.19c.41-.34.82-.66,1.22-.94a22.15,22.15,0,0,1,2.22-1.38C200.61,182.07,201.48,181.75,201.46,181.68Z" style="fill: rgb(255, 154, 108); transform-origin: 198.418px 184.703px;" id="el35854q98exs" class="animable"></path><path d="M161.78,201.6l-11.14-35.71A10.24,10.24,0,0,0,144,159.1l-6.8-1.54,7.52,57.95,1.69,4.35c4,8.87,12.68,7.37,20.36,3.45.28-.14.55-.28.81-.43L190,204.78l-7.43-13.39Z" style="fill: rgb(69, 90, 100); transform-origin: 163.6px 191.985px;" id="el8omijtew3g" class="animable"></path><path d="M159.3,211.79c.13,0,.18-2.38.94-5.17s1.88-4.86,1.76-4.93a12.68,12.68,0,0,0-2.19,4.81A13.14,13.14,0,0,0,159.3,211.79Z" style="fill: rgb(38, 50, 56); transform-origin: 160.617px 206.74px;" id="eled5st5iuew" class="animable"></path><path d="M91.91,176.07l7.53,70.22,41.68,3.07,3.32-2.84-1.16-53-15-37.76h0c-1.78,3.38-5.19,4.52-9.3,4.21a15.32,15.32,0,0,1-7.75-2.95l-6.89-5Z" style="fill: rgb(255, 255, 255); transform-origin: 118.175px 200.69px;" id="elb294jzfgb9k" class="animable"></path><path d="M104.46,148.42l-6.67,7.31-22.35,7.54,14,67.49L78.77,256.88A65.8,65.8,0,0,0,76,265.33L69.43,291s22.55,6.14,28.36,2.79,12.89-35.93,15-43.67,5.37-30.73,3.87-43-4.09-30.3-5.37-36.53S104.46,148.42,104.46,148.42Z" style="fill: rgb(69, 90, 100); transform-origin: 93.236px 221.605px;" id="eldj3x2smt2ow" class="animable"></path><path d="M75.44,163.27s-5.86,7.66-7.52,15c-2.81,12.44-13.66,46.39-13,54.34S97.57,255,97.57,255l1.72-22.13-19.55-10.3,5.37-20.86" style="fill: rgb(69, 90, 100); transform-origin: 77.0906px 209.135px;" id="elu01dbhereb8" class="animable"></path><path d="M85.11,201.72a2.56,2.56,0,0,1-.07.36c-.06.26-.14.61-.25,1.07-.24.95-.57,2.33-1,4.1l-3.87,15.37-.08-.2L99.4,232.67l.13.07v.16c-.51,6.72-1.08,14.2-1.69,22.13l0,.34-.32-.11c-8.24-2.9-17.1-6.28-26-10.42-2.93-1.39-5.81-2.81-8.55-4.41s-5.44-3.26-7.39-5.77a5.59,5.59,0,0,1-.61-1,2.36,2.36,0,0,1-.17-.59,1.86,1.86,0,0,1-.09-.6,17.56,17.56,0,0,1,.09-2.3c.12-1.51.4-3,.64-4.43.57-2.89,1.19-5.71,1.87-8.43,2.71-10.91,5.58-20.61,7.84-28.8,1.14-4.09,2.1-7.8,2.91-11.08a36.55,36.55,0,0,1,3.39-8,50.48,50.48,0,0,1,2.91-4.64c.36-.51.64-.9.84-1.15a2.74,2.74,0,0,1,.31-.37l-.27.4-.79,1.18c-.68,1.05-1.69,2.59-2.81,4.68a36.68,36.68,0,0,0-3.28,7.95c-.78,3.27-1.72,7-2.84,11.11-2.21,8.2-5,17.91-7.72,28.81-.67,2.72-1.29,5.53-1.85,8.41-.23,1.44-.5,2.9-.62,4.38a16.33,16.33,0,0,0-.08,2.21,3.38,3.38,0,0,0,.77,1.95c1.82,2.35,4.56,4,7.23,5.61s5.58,3,8.51,4.38c8.9,4.13,17.76,7.52,26,10.42l-.35.23c.63-7.93,1.22-15.41,1.75-22.13l.12.22L79.66,222.73l-.12-.07,0-.13c1.71-6.52,3.07-11.73,4-15.32.47-1.77.84-3.13,1.1-4.09l.29-1.05A1.63,1.63,0,0,1,85.11,201.72Z" style="fill: rgb(38, 50, 56); transform-origin: 77.1169px 209.32px;" id="elwy94nku1b1" class="animable"></path><path d="M128.34,150.87l3.29,5.08,13.69,3.47s3.6,18,3.6,23-2,59.73-2,62.31,9.89,37.6,9,39.75-11.18,3.66-11.18,3.66-3.86-30.3-3.86-40.62-.43-35.67-2.58-48.14S128.4,156,128.4,156Z" style="fill: rgb(69, 90, 100); transform-origin: 142.158px 219.505px;" id="elg7x16schhrn" class="animable"></path><path d="M141.1,253.26a.76.76,0,0,1,0-.26v-.75c0-.71,0-1.67,0-2.89,0-2.56.14-6.19.24-10.64.21-9,.57-21.4.79-35.1,0-1.72,0-3.41,0-5.08s-.17-3.28-.3-4.9c-.26-3.22-.51-6.33-.81-9.28s-.64-5.75-1.09-8.35a35.29,35.29,0,0,0-2-7,90.83,90.83,0,0,0-4.5-9.61c-.58-1.07-1-1.92-1.38-2.54l-.37-.66a.89.89,0,0,1-.1-.24,2.09,2.09,0,0,1,.15.21l.41.63c.35.56.86,1.4,1.48,2.49a81.84,81.84,0,0,1,4.67,9.58,35.24,35.24,0,0,1,2.09,7.07c.47,2.62.82,5.42,1.14,8.38s.58,6.07.85,9.29c.13,1.61.31,3.25.31,4.94s0,3.37,0,5.08c-.22,13.72-.64,26.13-.95,35.11-.18,4.45-.32,8.07-.42,10.63-.06,1.22-.11,2.19-.14,2.89,0,.31,0,.55-.06.76A.87.87,0,0,1,141.1,253.26Z" style="fill: rgb(38, 50, 56); transform-origin: 137.13px 204.61px;" id="elicxrqek5sn8" class="animable"></path><path d="M115.63,232.63a3.67,3.67,0,0,1-.13-.8c0-.53-.12-1.32-.18-2.33-.13-2-.25-4.95-.19-8.57q0-2.73.24-5.93a26.89,26.89,0,0,0-.81-6.65,112,112,0,0,0-4.94-14.7c-2.07-5.11-4.21-9.91-6.2-14.26a59.15,59.15,0,0,1-2.64-6.28,53.81,53.81,0,0,1-1.4-5.77c-.69-3.56-1.07-6.47-1.31-8.48-.12-1-.2-1.79-.25-2.32a4.13,4.13,0,0,1,0-.81,5.18,5.18,0,0,1,.14.8c.09.58.21,1.34.35,2.3.31,2,.74,4.9,1.48,8.43a54.45,54.45,0,0,0,1.45,5.71,60.79,60.79,0,0,0,2.67,6.21c2,4.34,4.17,9.14,6.25,14.27a109.49,109.49,0,0,1,4.93,14.79,27.12,27.12,0,0,1,.76,6.8c-.15,2.11-.25,4.09-.3,5.89-.11,3.62,0,6.54,0,8.56,0,1,.06,1.74.09,2.33A7.08,7.08,0,0,1,115.63,232.63Z" style="fill: rgb(38, 50, 56); transform-origin: 106.827px 194.18px;" id="elrwd2ckre9ri" class="animable"></path><path d="M177.27,230.94,165.53,246.8a2.13,2.13,0,0,1-2.11.83L112.67,238a2.14,2.14,0,0,1-1.64-2.77l5.47-16.85a2.14,2.14,0,0,1,2.43-1.44l57,10.58A2.15,2.15,0,0,1,177.27,230.94Z" style="fill: rgb(38, 50, 56); transform-origin: 144.316px 232.285px;" id="elzlsqsb5mjn" class="animable"></path><path d="M67.92,224a4.82,4.82,0,0,1,1.7-1.38,10.47,10.47,0,0,1,10.25-.14,4.83,4.83,0,0,1,1.74,1.34c0,.07-.72-.44-1.92-1a11.3,11.3,0,0,0-9.89.14C68.62,223.51,68,224,67.92,224Z" style="fill: rgb(38, 50, 56); transform-origin: 74.765px 222.604px;" id="eld3zw0eok6p7" class="animable"></path><g id="el1vxvnacaxk1"><g style="opacity: 0.3; transform-origin: 96.38px 254.765px;" class="animable"><polygon points="79.92 254.04 99.97 261.41 102.06 253.09 111.56 255.01 112.84 250.2 97.94 248.12 97.79 255.01 82.21 249.13 79.92 254.04" id="elapp2lt0p94l" class="animable" style="transform-origin: 96.38px 254.765px;"></polygon></g></g><path d="M99.15,234.65s4-3.39,5.26-4.15,5.44-3.54,7.35-3.25l1.91.28L112,232.6s15.38-2.3,17.48.19-2.29,3-4.59,3.24-9.65,1.53-9.65,1.53,19.2-2.1,20.54,0-1.86,2.58-1.86,2.58l-12.72,5.06-1.46.58-1.46,1.91s-5.23,3.63-6.85,3.15-13.45-2.73-13.45-2.73Z" style="fill: rgb(255, 191, 157); transform-origin: 117.044px 239.056px;" id="eloydus5vmxz" class="animable"></path><path d="M112.51,243.33a15.05,15.05,0,0,1,3-.91,72.8,72.8,0,0,1,7.38-1.41,71.53,71.53,0,0,1,7.48-.67,14.51,14.51,0,0,1,3.12.06,20.85,20.85,0,0,1-3.09.33c-1.91.16-4.54.42-7.44.82s-5.49.88-7.37,1.25A20.13,20.13,0,0,1,112.51,243.33Z" style="fill: rgb(255, 154, 108); transform-origin: 123px 241.807px;" id="el90uekyzmokp" class="animable"></path><path d="M114.26,247a7.72,7.72,0,0,1,2.75-1,7.8,7.8,0,0,1,2.89-.47,7.82,7.82,0,0,1-2.75,1A8.08,8.08,0,0,1,114.26,247Z" style="fill: rgb(255, 154, 108); transform-origin: 117.08px 246.264px;" id="el3agvck2vgs4" class="animable"></path><path d="M148.57,174.87a3.31,3.31,0,0,1,.09.71c0,.52.09,1.19.15,2,.14,1.76.23,4.31.29,7.47.12,6.31-.18,15-.81,24.65S147.12,228,147,234.34c-.07,3.15-.1,5.7-.07,7.46v2a3.51,3.51,0,0,1,0,.71,2.76,2.76,0,0,1-.07-.7c0-.52-.06-1.2-.11-2-.08-1.77-.12-4.32-.1-7.48,0-6.32.51-15,1.13-24.64s1-18.3,1-24.61c0-3.15,0-5.7-.11-7.46,0-.84,0-1.51,0-2A3.91,3.91,0,0,1,148.57,174.87Z" style="fill: rgb(38, 50, 56); transform-origin: 147.885px 209.69px;" id="elt80agw47z58" class="animable"></path><path d="M86.64,199.52a6.58,6.58,0,0,1-.09-1.41c0-.91-.07-2.23-.18-3.84a67.65,67.65,0,0,0-2.07-12.48A68,68,0,0,0,79.87,170c-.71-1.46-1.32-2.63-1.76-3.42a7,7,0,0,1-.63-1.27,6.83,6.83,0,0,1,.81,1.16c.5.77,1.17,1.91,1.92,3.35a58.83,58.83,0,0,1,4.62,11.88,59.15,59.15,0,0,1,1.93,12.6c.06,1.63.06,2.95,0,3.86A6.68,6.68,0,0,1,86.64,199.52Z" style="fill: rgb(38, 50, 56); transform-origin: 82.1425px 182.415px;" id="eldj90ddtv8lt" class="animable"></path><path d="M125.09,136.9c.06,0-.57.61-1.79.56a3.13,3.13,0,0,1-2-.73,3.07,3.07,0,0,1-.92-2.42,4.37,4.37,0,0,1,.07-.7,2.39,2.39,0,0,1,.29-.65,1.77,1.77,0,0,1,.14-.17.6.6,0,0,1,.24-.12.71.71,0,0,1,.41,0c.24.06.4.12.58.18l1.9.68a7.37,7.37,0,0,1,1.7.74,6.39,6.39,0,0,1-1.82-.39l-1.93-.57-.53-.16a.53.53,0,0,0-.18,0h0s-.09-.14,0-.07l0,.06s0,0,0,0l-.06.07a2.05,2.05,0,0,0-.22.5,4.65,4.65,0,0,0,0,.58,2.69,2.69,0,0,0,.73,2.06,2.89,2.89,0,0,0,1.68.71A4.61,4.61,0,0,0,125.09,136.9Z" style="fill: rgb(38, 50, 56); transform-origin: 123.041px 135.051px;" id="el4kbgp8kw4vo" class="animable"></path></g><defs>     <filter id="active" height="200%">         <feMorphology in="SourceAlpha" result="DILATED" operator="dilate" radius="2"></feMorphology>                <feFlood flood-color="#32DFEC" flood-opacity="1" result="PINK"></feFlood>        <feComposite in="PINK" in2="DILATED" operator="in" result="OUTLINE"></feComposite>        <feMerge>            <feMergeNode in="OUTLINE"></feMergeNode>            <feMergeNode in="SourceGraphic"></feMergeNode>        </feMerge>    </filter>    <filter id="hover" height="200%">        <feMorphology in="SourceAlpha" result="DILATED" operator="dilate" radius="2"></feMorphology>                <feFlood flood-color="#ff0000" flood-opacity="0.5" result="PINK"></feFlood>        <feComposite in="PINK" in2="DILATED" operator="in" result="OUTLINE"></feComposite>        <feMerge>            <feMergeNode in="OUTLINE"></feMergeNode>            <feMergeNode in="SourceGraphic"></feMergeNode>        </feMerge>            <feColorMatrix type="matrix" values="0   0   0   0   0                0   1   0   0   0                0   0   0   0   0                0   0   0   1   0 "></feColorMatrix>    </filter></defs></svg>